<svg id="Layer_1" data-name="Layer 1" xmlns="http://www.w3.org/2000/svg" viewBox="0 0 44 44"><defs><style>.cls-1{fill:#4be8c5;opacity:0.5;isolation:isolate;}.cls-2{fill:#181930;}.cls-3{fill:#fff;}</style></defs><circle class="cls-1" cx="22" cy="22" r="22"/><circle class="cls-2" cx="22" cy="22" r="16"/><path class="cls-3" d="M26.64,24.37a1.63,1.63,0,0,1-2.22.51l-5.64-3.61A3.66,3.66,0,0,1,17,18.13a3.8,3.8,0,0,1,1.67-3.19,5.43,5.43,0,0,1,6.1,0l1.39.92a1.64,1.64,0,0,1-1.81,2.73L23,17.66a2.27,2.27,0,0,0-2.5,0,.56.56,0,0,0-.23.47.47.47,0,0,0,.23.41l5.64,3.61A1.59,1.59,0,0,1,26.64,24.37Z"/><path class="cls-3" d="M19.93,28.81l-2.22-1.48a1.68,1.68,0,0,1-.46-2.27,1.64,1.64,0,0,1,2.27-.46l2.22,1.48a1.68,1.68,0,0,1,.46,2.27A1.65,1.65,0,0,1,19.93,28.81Z"/></svg>