<svg id="Layer_1" data-name="Layer 1" xmlns="http://www.w3.org/2000/svg" viewBox="0 0 44 44"><defs><style>.cls-1{fill:#4be8c5;opacity:0.5;}.cls-1,.cls-3{isolation:isolate;}.cls-2{fill:#181930;}.cls-3,.cls-4{fill:#fff;}.cls-3{opacity:0.3;}</style></defs><circle class="cls-1" cx="22" cy="22" r="22"/><circle class="cls-2" cx="22" cy="22" r="16"/><path class="cls-3" d="M29,21h2a1,1,0,0,1,0,2H29a1,1,0,0,1,0-2ZM13,21h2a1,1,0,0,1,0,2H13a1,1,0,0,1,0-2Zm9-9a1,1,0,0,1,1,1v2a1,1,0,0,1-2,0V13A1,1,0,0,1,22,12Zm0,16a1,1,0,0,1,1,1v2a1,1,0,0,1-2,0V29A1,1,0,0,1,22,28Z"/><path class="cls-3" d="M22,24a2,2,0,1,0-2-2A2,2,0,0,0,22,24Z"/><path class="cls-4" d="M22,27a5,5,0,1,0-5-5A5,5,0,0,0,22,27Zm0,2a7,7,0,1,1,7-7A7,7,0,0,1,22,29Z"/></svg>