<svg id="Layer_1" data-name="Layer 1" xmlns="http://www.w3.org/2000/svg" viewBox="0 0 44 44"><defs><style>.cls-1{fill:#4be8c5;opacity:0.5;}.cls-1,.cls-3{isolation:isolate;}.cls-2{fill:#181930;}.cls-3,.cls-4{fill:#fff;}.cls-3{opacity:0.3;}</style></defs><circle class="cls-1" cx="22" cy="22" r="22"/><circle class="cls-2" cx="22" cy="22" r="16"/><path class="cls-3" d="M25.45,27.4l-1.27-1.54a5,5,0,0,0,0-7.71l1.28-1.54a7,7,0,0,1,0,10.79ZM28,30.47l-1.28-1.54a9,9,0,0,0,0-13.85L28,13.54a11,11,0,0,1,0,16.93ZM18.55,27.4a7,7,0,0,1,0-10.79l1.28,1.54a5,5,0,0,0,0,7.71ZM16,30.47a11,11,0,0,1,0-16.93l1.28,1.54a9,9,0,0,0,0,13.85Z"/><path class="cls-4" d="M22,24a2,2,0,1,0-2-2A2,2,0,0,0,22,24Z"/></svg>