<svg id="Layer_1" data-name="Layer 1" xmlns="http://www.w3.org/2000/svg" viewBox="0 0 44 44"><defs><style>.cls-1{fill:#4be8c5;opacity:0.5;}.cls-1,.cls-3,.cls-5{isolation:isolate;}.cls-2{fill:#181930;}.cls-3,.cls-4,.cls-5{fill:#fff;}.cls-3,.cls-4{fill-rule:evenodd;}.cls-3,.cls-5{opacity:0.3;}</style></defs><circle class="cls-1" cx="22" cy="22" r="22"/><circle class="cls-2" cx="22" cy="22" r="16"/><path class="cls-3" d="M18,13v.5A1.5,1.5,0,0,0,19.5,15h5A1.5,1.5,0,0,0,26,13.5V13h2a2,2,0,0,1,2,2V31a2,2,0,0,1-2,2H16a2,2,0,0,1-2-2V15a2,2,0,0,1,2-2Z"/><path class="cls-4" d="M21,12a1,1,0,0,1,2,0h1.5a.5.5,0,0,1,.5.5v1a.5.5,0,0,1-.5.5h-5a.5.5,0,0,1-.5-.5v-1a.5.5,0,0,1,.5-.5Z"/><path class="cls-5" d="M26,19H21a1,1,0,0,0,0,2h5a1,1,0,0,0,0-2Z"/><path class="cls-5" d="M19,20a1,1,0,1,0-1,1A1,1,0,0,0,19,20Z"/><path class="cls-5" d="M19,24a1,1,0,1,0-1,1A1,1,0,0,0,19,24Z"/><path class="cls-5" d="M26,23H21a1,1,0,0,0,0,2h5a1,1,0,0,0,0-2Z"/><path class="cls-5" d="M19,28a1,1,0,1,0-1,1A1,1,0,0,0,19,28Z"/><path class="cls-5" d="M26,27H21a1,1,0,0,0,0,2h5a1,1,0,0,0,0-2Z"/></svg>