<svg id="Layer_1" data-name="Layer 1" xmlns="http://www.w3.org/2000/svg" viewBox="0 0 44 44"><defs><style>.cls-1{fill:#4be8c5;opacity:0.5;isolation:isolate;}.cls-2{fill:#181930;}.cls-3{fill:#fff;fill-rule:evenodd;}</style></defs><circle class="cls-1" cx="22" cy="22" r="22"/><circle class="cls-2" cx="22" cy="22" r="16"/><path class="cls-3" d="M22,31a9,9,0,1,1,9-9A9,9,0,0,1,22,31Zm2.17-13.65-4.56,3a.51.51,0,0,0-.22.39l-.33,5.45a.5.5,0,0,0,.47.53.61.61,0,0,0,.3-.08l4.56-3a.51.51,0,0,0,.22-.39l.33-5.45a.5.5,0,0,0-.47-.53A.61.61,0,0,0,24.17,17.35Z"/></svg>