<svg id="Layer_1" data-name="Layer 1" xmlns="http://www.w3.org/2000/svg" viewBox="0 0 44 44"><defs><style>.cls-1{fill:#4be8c5;opacity:0.5;}.cls-1,.cls-3{isolation:isolate;}.cls-2{fill:#181930;}.cls-3,.cls-4{fill:#fff;fill-rule:evenodd;}.cls-3{opacity:0.3;}</style></defs><circle class="cls-1" cx="22" cy="22" r="22"/><circle class="cls-2" cx="22" cy="22" r="16"/><path class="cls-3" d="M14,14l7.63-1.43a1.84,1.84,0,0,1,.74,0L30,14v9.28a8.51,8.51,0,0,1-4,7.22l-3.47,2.17a1,1,0,0,1-1.06,0L18,30.5a8.51,8.51,0,0,1-4-7.22Z"/><path class="cls-4" d="M21.17,24.75a1,1,0,0,1-.67-.29l-1.91-1.91a1,1,0,1,1,1.34-1.35l1.24,1.25,3.17-3.16a.91.91,0,0,1,1.34,0,.93.93,0,0,1,0,1.34l-3.83,3.83A1,1,0,0,1,21.17,24.75Z"/></svg>