<svg id="Layer_1" data-name="Layer 1" xmlns="http://www.w3.org/2000/svg" viewBox="0 0 44 44"><defs><style>.cls-1{fill:#4be8c5;opacity:0.5;}.cls-1,.cls-3{isolation:isolate;}.cls-2{fill:#181930;}.cls-3,.cls-4{fill:#fff;}.cls-3{opacity:0.3;}.cls-4{fill-rule:evenodd;}</style></defs><circle class="cls-1" cx="22" cy="22" r="22"/><circle class="cls-2" cx="22" cy="22" r="16"/><path class="cls-3" d="M28,14H16a2,2,0,0,0-2,2V28a2,2,0,0,0,2,2H28a2,2,0,0,0,2-2V16A2,2,0,0,0,28,14Z"/><path class="cls-3" d="M25,19H19v6h6Z"/><path class="cls-4" d="M30,17h1a1,1,0,0,1,0,2H30Z"/><path class="cls-4" d="M30,21h1a1,1,0,0,1,0,2H30Z"/><path class="cls-4" d="M30,25h1a1,1,0,0,1,0,2H30Z"/><path class="cls-4" d="M13,17h1v2H13a1,1,0,0,1,0-2Z"/><path class="cls-4" d="M13,21h1v2H13a1,1,0,0,1,0-2Z"/><path class="cls-4" d="M13,25h1v2H13a1,1,0,0,1,0-2Z"/></svg>