<svg width="54" height="54" viewBox="0 0 54 54" fill="none" xmlns="http://www.w3.org/2000/svg">
<path fill-rule="evenodd" clip-rule="evenodd" d="M4.5 26.6964V13.5C4.5 9.77208 7.52208 6.75 11.25 6.75H42.75C46.4779 6.75 49.5 9.77208 49.5 13.5V33.75C49.5 33.7574 49.5 33.7647 49.5 33.7721L49.5561 33.75V44.068C49.5561 45.3107 48.5488 46.318 47.3061 46.318C46.7094 46.318 46.1371 46.081 45.7151 45.659L40.5561 40.5H29.2131C28.6342 31.7047 21.3168 24.75 12.375 24.75C9.53079 24.75 6.85093 25.4536 4.5 26.6964ZM13.5 15.75C12.2574 15.75 11.25 16.7574 11.25 18C11.25 19.2426 12.2574 20.25 13.5 20.25H33.75C34.9926 20.25 36 19.2426 36 18C36 16.7574 34.9926 15.75 33.75 15.75H13.5Z" fill="#181930"/>
<path fill-rule="evenodd" clip-rule="evenodd" d="M13.5 31.5C14.7426 31.5 15.75 32.5074 15.75 33.75V38.25C15.75 39.4926 14.7426 40.5 13.5 40.5C12.2574 40.5 11.25 39.4926 11.25 38.25V33.75C11.25 32.5074 12.2574 31.5 13.5 31.5ZM13.5 47.25C12.2574 47.25 11.25 46.2426 11.25 45C11.25 43.7574 12.2574 42.75 13.5 42.75C14.7426 42.75 15.75 43.7574 15.75 45C15.75 46.2426 14.7426 47.25 13.5 47.25Z" fill="#4BE8C5"/>
</svg>
