<svg width="54" height="54" viewBox="0 0 54 54" fill="none" xmlns="http://www.w3.org/2000/svg">
<path opacity="0.3" fill-rule="evenodd" clip-rule="evenodd" d="M51 27C51 40.2548 40.2548 51 27 51C13.7452 51 3 40.2548 3 27C3 13.7452 13.7452 3 27 3C40.2548 3 51 13.7452 51 27ZM33.8432 31.4185C33.1877 32.4673 31.7457 32.795 30.697 32.1395L22.7003 27.0269C21.1272 26.0437 20.2095 24.405 20.2095 22.5697C20.2095 20.7344 21.0616 19.0958 22.5692 18.047C25.1911 16.2772 28.5995 16.2772 31.2213 18.047L33.1877 19.3579C34.2365 20.079 34.4987 21.4554 33.8432 22.5697C33.1222 23.6185 31.7457 23.8807 30.6314 23.2252L28.665 21.9143C27.6163 21.1932 26.1743 21.1932 25.1255 21.9143C24.8633 22.1109 24.7978 22.3731 24.7978 22.5697C24.7978 22.7008 24.8633 23.0285 25.1255 23.1596L33.1222 28.2723C34.2365 28.9277 34.4987 30.3698 33.8432 31.4185ZM21.1925 35.6131L24.3388 37.7106C25.3875 38.4316 26.8295 38.1039 27.5505 37.0552C28.206 35.9409 27.9438 34.5644 26.8951 33.8434L23.7488 31.7459C22.6345 31.0249 21.2581 31.3526 20.537 32.4014C19.8816 33.5156 20.1438 34.8921 21.1925 35.6131Z" fill="#4BE8C5"/>
<path fill-rule="evenodd" clip-rule="evenodd" d="M43.7992 26.9997C43.7992 36.2781 36.2776 43.7997 26.9992 43.7997C17.7208 43.7997 10.1992 36.2781 10.1992 26.9997C10.1992 17.7213 17.7208 10.1997 26.9992 10.1997C36.2776 10.1997 43.7992 17.7213 43.7992 26.9997ZM33.8429 31.4186C33.1874 32.4674 31.7454 32.7951 30.6966 32.1397L22.6999 27.027C21.1268 26.0438 20.2092 24.4052 20.2092 22.5699C20.2092 20.7345 21.0613 19.0959 22.5688 18.0471C25.1907 16.2774 28.5991 16.2774 31.221 18.0471L33.1874 19.3581C34.2361 20.0791 34.4983 21.4556 33.8429 22.5699C33.1218 23.6186 31.7454 23.8808 30.6311 23.2253L28.6647 21.9144C27.6159 21.1934 26.1739 21.1934 25.1252 21.9144C24.863 22.111 24.7974 22.3732 24.7974 22.5699C24.7974 22.7009 24.863 23.0287 25.1252 23.1598L33.1218 28.2724C34.2361 28.9279 34.4983 30.3699 33.8429 31.4186ZM21.1922 35.6133L24.3384 37.7108C25.3871 38.4318 26.8292 38.104 27.5502 37.0553C28.2056 35.941 27.9435 34.5645 26.8947 33.8435L23.7485 31.746C22.6342 31.025 21.2577 31.3527 20.5367 32.4015C19.8812 33.5158 20.1434 34.8923 21.1922 35.6133Z" fill="#181930"/>
</svg>
