<svg width="54" height="54" viewBox="0 0 54 54" fill="none" xmlns="http://www.w3.org/2000/svg">
<path d="M42.75 24.75H47.25C48.4926 24.75 49.5 25.7574 49.5 27C49.5 28.2426 48.4926 29.25 47.25 29.25H42.75C41.5074 29.25 40.5 28.2426 40.5 27C40.5 25.7574 41.5074 24.75 42.75 24.75ZM6.75 24.75H11.25C12.4926 24.75 13.5 25.7574 13.5 27C13.5 28.2426 12.4926 29.25 11.25 29.25H6.75C5.50736 29.25 4.5 28.2426 4.5 27C4.5 25.7574 5.50736 24.75 6.75 24.75ZM27 4.5C28.2426 4.5 29.25 5.50736 29.25 6.75V11.25C29.25 12.4926 28.2426 13.5 27 13.5C25.7574 13.5 24.75 12.4926 24.75 11.25V6.75C24.75 5.50736 25.7574 4.5 27 4.5ZM27 40.5C28.2426 40.5 29.25 41.5074 29.25 42.75V47.25C29.25 48.4926 28.2426 49.5 27 49.5C25.7574 49.5 24.75 48.4926 24.75 47.25V42.75C24.75 41.5074 25.7574 40.5 27 40.5Z" fill="#4BE8C5"/>
<path d="M27 31.5C29.4853 31.5 31.5 29.4853 31.5 27C31.5 24.5147 29.4853 22.5 27 22.5C24.5147 22.5 22.5 24.5147 22.5 27C22.5 29.4853 24.5147 31.5 27 31.5Z" fill="#4BE8C5"/>
<path d="M27 38.25C33.2132 38.25 38.25 33.2132 38.25 27C38.25 20.7868 33.2132 15.75 27 15.75C20.7868 15.75 15.75 20.7868 15.75 27C15.75 33.2132 20.7868 38.25 27 38.25ZM27 42.75C18.3015 42.75 11.25 35.6985 11.25 27C11.25 18.3015 18.3015 11.25 27 11.25C35.6985 11.25 42.75 18.3015 42.75 27C42.75 35.6985 35.6985 42.75 27 42.75Z" fill="#181930"/>
</svg>
