<svg width="54" height="54" viewBox="0 0 54 54" fill="none" xmlns="http://www.w3.org/2000/svg">
<path d="M38.25 9H13.5C10.78 9 9 10.575 9 13.5V40.5C9 43.425 10.78 45 13.5 45H40.5C43.2 45 45 43.425 45 40.5V16.216C45 15.9176 44.8815 15.6315 44.6705 15.4205L38.25 9ZM38.25 24.75H15.75V9H38.25V24.75Z" fill="#181930"/>
<path d="M32.625 9H28.125C27.5037 9 27 9.50368 27 10.125V19.125C27 19.7463 27.5037 20.25 28.125 20.25H32.625C33.2463 20.25 33.75 19.7463 33.75 19.125V10.125C33.75 9.50368 33.2463 9 32.625 9Z" fill="#4BE8C5"/>
</svg>
