<svg width="24" height="24" viewBox="0 0 24 24" fill="none" xmlns="http://www.w3.org/2000/svg">
    <path fill-rule="evenodd" clip-rule="evenodd" d="M13.0809 14.7843L15.2849 12.5803C15.8937 11.9716 16.0446 11.0416 15.6596 10.2716L15.5347 10.0219C15.1497 9.2519 15.3006 8.32196 15.9093 7.71323L18.6421 4.98043C18.8374 4.78517 19.154 4.78517 19.3492 4.98043C19.3872 5.01843 19.4189 5.06231 19.4429 5.11038L20.5469 7.31833C21.3914 9.00744 21.0604 11.0475 19.725 12.3828L13.7262 18.3816C12.2727 19.8352 10.1226 20.3427 8.17252 19.6927L5.75804 18.8879C5.49607 18.8005 5.35449 18.5174 5.44181 18.2554C5.46636 18.1818 5.50771 18.1149 5.5626 18.06L8.21387 15.4087C8.82259 14.8 9.75253 14.6491 10.5225 15.0341L10.7723 15.1589C11.5422 15.5439 12.4722 15.393 13.0809 14.7843Z" fill="#506EFA" />
    <path opacity="0.3" d="M14.148 6.00712L13.9567 7.99794C12.4781 7.85581 11.0097 8.36893 9.9393 9.43931C8.87243 10.5062 8.35908 11.9685 8.49661 13.4426L6.50525 13.6284C6.31301 11.5678 7.0328 9.51738 8.52509 8.0251C10.0223 6.5279 12.0812 5.80844 14.148 6.00712ZM14.4981 2.02227L14.313 4.01369C11.6618 3.76734 9.02997 4.69179 7.11088 6.61088C5.19444 8.52732 4.26982 11.1546 4.51271 13.8024L2.52107 13.9851C2.22447 10.7517 3.35559 7.53774 5.69666 5.19667C8.04098 2.85235 11.2606 1.72144 14.4981 2.02227Z" fill="#506EFA" />
</svg>
