<svg width="13" height="15" viewBox="0 0 13 15" fill="white" xmlns="http://www.w3.org/2000/svg">
    <path d="M9.6246 5.62573H3.37499C3.2025 5.62573 3.0625 5.76573 3.0625 5.93822V10.9379C3.0625 11.6929 3.59997 12.3234 4.31243 12.4691V14.0627C4.31243 14.5796 4.73302 15.0001 5.24987 15.0001C5.76672 15.0001 6.18731 14.5796 6.18731 14.0627V12.5003H6.81226V14.0627C6.81226 14.5796 7.23284 15.0001 7.7497 15.0001C8.26655 15.0001 8.68713 14.5796 8.68713 14.0627V12.4691C9.39959 12.3241 9.93706 11.6929 9.93706 10.9379V5.93822C9.93706 5.76512 9.79709 5.62573 9.6246 5.62573Z" />
    <path d="M8.13528 1.66529L8.66212 0.435983C8.73023 0.277234 8.65649 0.0941408 8.49774 0.0260008C8.34087 -0.0427544 8.15526 0.0310102 8.08776 0.190375L7.56092 1.42029C7.22658 1.31155 6.87035 1.25094 6.50035 1.25094C6.13039 1.25094 5.77416 1.31155 5.43979 1.42029L4.91175 0.190375C4.84425 0.0310102 4.65864 -0.0433696 4.50176 0.0260008C4.34301 0.0941115 4.26989 0.277849 4.33803 0.435983L4.86487 1.66529C3.79183 2.24776 3.0625 3.38455 3.0625 4.6882C3.0625 4.86069 3.2025 5.00069 3.37499 5.00069H9.62457C9.79706 5.00069 9.93706 4.86069 9.93706 4.6882C9.93704 3.38455 9.20771 2.24776 8.13528 1.66529ZM5.24984 3.75076C5.07735 3.75076 4.93735 3.61076 4.93735 3.43827C4.93735 3.26579 5.07735 3.12579 5.24984 3.12579C5.42233 3.12579 5.56233 3.26579 5.56233 3.43827C5.56233 3.61076 5.42233 3.75076 5.24984 3.75076ZM7.7497 3.75076C7.57721 3.75076 7.43721 3.61076 7.43721 3.43827C7.43721 3.26579 7.57721 3.12579 7.7497 3.12579C7.92218 3.12579 8.06219 3.26579 8.06219 3.43827C8.06219 3.61076 7.92218 3.75076 7.7497 3.75076Z" />
    <path d="M11.499 5.62573C10.9821 5.62573 10.5615 6.04632 10.5615 6.56317V9.68797C10.5615 10.2048 10.9821 10.6254 11.499 10.6254C12.0158 10.6254 12.4364 10.2048 12.4364 9.68797V6.56317C12.4364 6.04635 12.0158 5.62573 11.499 5.62573Z" />
    <path d="M1.49994 5.62573C0.983087 5.62573 0.5625 6.04632 0.5625 6.56317V9.68797C0.5625 10.2048 0.983087 10.6254 1.49994 10.6254C2.01679 10.6254 2.43738 10.2048 2.43738 9.68797V6.56317C2.43738 6.04635 2.01679 5.62573 1.49994 5.62573Z" />
</svg>
