<svg width="13" height="15" viewBox="0 0 13 15" fill="white" xmlns="http://www.w3.org/2000/svg">
    <path d="M9.31223 0C8.51255 0.0553122 7.57787 0.567184 7.03319 1.23374C6.53632 1.83843 6.12757 2.73655 6.28694 3.60935C7.16069 3.63654 8.06349 3.11248 8.58661 2.43467C9.07598 1.80374 9.44629 0.911245 9.31223 0Z" />
    <path d="M12.4721 5.03254C11.7043 4.06973 10.6252 3.51099 9.60616 3.51099C8.26085 3.51099 7.69179 4.15505 6.75711 4.15505C5.79336 4.15505 5.06118 3.51286 3.89775 3.51286C2.75495 3.51286 1.53808 4.2113 0.76652 5.40567C-0.318161 7.08753 -0.132538 10.2497 1.62526 12.9431C2.25432 13.9069 3.09432 14.9906 4.19306 15C5.17087 15.0094 5.44649 14.3728 6.77117 14.3663C8.09585 14.3588 8.3471 15.0084 9.32303 14.9981C10.4227 14.9897 11.3086 13.7888 11.9377 12.825C12.3886 12.1341 12.5564 11.7863 12.9061 11.0063C10.3627 10.0378 9.9549 6.42097 12.4721 5.03254Z" />
</svg>
