<svg width="4" height="15" viewBox="0 0 4 15" fill="none" xmlns="http://www.w3.org/2000/svg">
<path d="M3.26013 9.95039H0.530021L0.100004 0H3.69015L3.26013 9.95039ZM0 13.0505C0 12.5572 0.176674 12.1538 0.530021 11.8405C0.890035 11.5205 1.33672 11.3604 1.87007 11.3604C2.40343 11.3604 2.84678 11.5205 3.20013 11.8405C3.56014 12.1538 3.74015 12.5572 3.74015 13.0505C3.74015 13.5439 3.56014 13.9505 3.20013 14.2706C2.84678 14.5839 2.40343 14.7406 1.87007 14.7406C1.33672 14.7406 0.890035 14.5839 0.530021 14.2706C0.176674 13.9505 0 13.5439 0 13.0505Z" fill="white"/>
</svg>
