<svg width="77" height="78" viewBox="0 0 77 78" fill="none" xmlns="http://www.w3.org/2000/svg">
<path fill-rule="evenodd" clip-rule="evenodd" d="M35.3019 38.1357L35.002 58.0921L39.7749 62.8651L44.5479 58.0921L41.3659 54.9101L44.4553 51.8208L41.2733 48.6388L44.5479 45.3642L44.2702 38.1357H35.3019Z" fill="#4BE8C5"/>
<path fill-rule="evenodd" clip-rule="evenodd" d="M39.7285 41.3628C32.2727 41.3628 26.2285 35.3186 26.2285 27.8628C26.2285 20.4069 32.2727 14.3628 39.7285 14.3628C47.1844 14.3628 53.2285 20.4069 53.2285 27.8628C53.2285 35.3186 47.1844 41.3628 39.7285 41.3628ZM40.1614 28.0558C42.0254 28.0558 43.5364 26.5448 43.5364 24.6808C43.5364 22.8168 42.0254 21.3058 40.1614 21.3058C38.2974 21.3058 36.7864 22.8168 36.7864 24.6808C36.7864 26.5448 38.2974 28.0558 40.1614 28.0558Z" fill="#181930"/>
</svg>
