<svg width="54" height="54" viewBox="0 0 54 54" fill="none" xmlns="http://www.w3.org/2000/svg">
<path fill-rule="evenodd" clip-rule="evenodd" d="M27 9.5835C27.3349 9.58324 27.6751 9.65807 27.9958 9.81634C28.4395 10.0353 28.7987 10.3945 29.0177 10.8382L33.6126 20.1486L43.8872 21.6415C45.1169 21.8202 45.9689 22.962 45.7902 24.1917C45.7191 24.6814 45.4885 25.134 45.1341 25.4794L37.6994 32.7264L39.4545 42.9595C39.6646 44.1843 38.842 45.3474 37.6172 45.5575C37.1295 45.6411 36.6278 45.5617 36.1899 45.3314L27 40.5V9.5835Z" fill="#4BE8C5"/>
<path fill-rule="evenodd" clip-rule="evenodd" d="M27.0001 9.5835V40.5L17.8103 45.3314C16.7104 45.9096 15.35 45.4868 14.7717 44.3869C14.5415 43.9489 14.462 43.4472 14.5456 42.9595L16.3007 32.7264L8.866 25.4794C7.97616 24.612 7.95795 23.1875 8.82533 22.2976C9.17072 21.9433 9.62329 21.7127 10.113 21.6415L20.3876 20.1486L24.9825 10.8382C25.3742 10.0446 26.1712 9.58412 27.0001 9.5835Z" fill="#181930"/>
</svg>
