<svg width="54" height="54" viewBox="0 0 54 54" fill="none" xmlns="http://www.w3.org/2000/svg">
<path fill-rule="evenodd" clip-rule="evenodd" d="M9 8.99971L26.1707 5.7802C26.7188 5.67743 27.2812 5.67743 27.8293 5.7802L45 8.99971V29.8865C45 36.4888 41.5988 42.6255 36 46.1247L28.1925 51.0044C27.4629 51.4604 26.5371 51.4604 25.8075 51.0044L18 46.1247C12.4012 42.6255 9 36.4888 9 29.8865V8.99971Z" fill="#4BE8C5"/>
<path fill-rule="evenodd" clip-rule="evenodd" d="M25.1436 33.1875C24.6045 33.1875 24.0654 32.9719 23.6342 32.5406L19.3217 28.2281C18.4592 27.3656 18.4592 26.0719 19.3217 25.2094C20.1842 24.3469 21.5857 24.3469 22.3404 25.2094L25.1436 28.0125L32.2592 20.8969C33.1217 20.0344 34.4154 20.0344 35.2779 20.8969C36.1404 21.7594 36.1404 23.0531 35.2779 23.9156L26.6529 32.5406C26.2217 32.9719 25.6826 33.1875 25.1436 33.1875Z" fill="#181930"/>
</svg>
