<svg width="54" height="54" viewBox="0 0 54 54" fill="none" xmlns="http://www.w3.org/2000/svg">
<path d="M27 24.75C22.0294 24.75 18 20.7206 18 15.75C18 10.7794 22.0294 6.75 27 6.75C31.9706 6.75 36 10.7794 36 15.75C36 20.7206 31.9706 24.75 27 24.75Z" fill="#4BE8C5"/>
<path d="M6.75147 45.4482C7.62358 34.7097 16.3393 29.25 26.9625 29.25C37.7352 29.25 46.586 34.4097 47.2453 45.45C47.2716 45.8898 47.2453 47.25 45.5551 47.25C37.2175 47.25 24.8281 47.25 8.38688 47.25C7.8226 47.25 6.70396 46.0332 6.75147 45.4482Z" fill="#181930"/>
</svg>
