<svg width="54" height="54" viewBox="0 0 54 54" fill="none" xmlns="http://www.w3.org/2000/svg">
<path d="M49.5 27C49.5 14.5736 39.4264 4.5 27 4.5C14.5736 4.5 4.5 14.5736 4.5 27C4.5 39.4264 14.5736 49.5 27 49.5C39.4264 49.5 49.5 39.4264 49.5 27Z" fill="#4BE8C5"/>
<path fill-rule="evenodd" clip-rule="evenodd" d="M13.8781 32.7483C13.1888 31.7144 13.4682 30.3174 14.5022 29.6281C15.5361 28.9388 16.9331 29.2182 17.6224 30.2522C20.2257 34.1572 23.2975 36.0002 27.0002 36.0002C30.703 36.0002 33.7748 34.1572 36.3781 30.2522C37.0674 29.2182 38.4644 28.9388 39.4983 29.6281C40.5323 30.3174 40.8116 31.7144 40.1224 32.7483C36.7257 37.8433 32.2975 40.5002 27.0002 40.5002C21.703 40.5002 17.2748 37.8433 13.8781 32.7483Z" fill="#181930"/>
</svg>
