<svg width="54" height="54" viewBox="0 0 54 54" fill="none" xmlns="http://www.w3.org/2000/svg">
<path fill-rule="evenodd" clip-rule="evenodd" d="M25.4088 12.6812L41.3187 28.5911L26.9997 42.91L11.0898 27.0001L25.4088 12.6812ZM19.0448 25.4091C18.1661 26.2878 18.1661 27.7124 19.0448 28.5911C19.9235 29.4697 21.3481 29.4697 22.2268 28.5911C23.1055 27.7124 23.1055 26.2878 22.2268 25.4091C21.3481 24.5304 19.9235 24.5304 19.0448 25.4091ZM25.4088 19.0451C24.5301 19.9238 24.5301 21.3484 25.4088 22.2271C26.2874 23.1058 27.7121 23.1058 28.5907 22.2271C29.4694 21.3484 29.4694 19.9238 28.5907 19.0451C27.7121 18.1664 26.2874 18.1664 25.4088 19.0451ZM25.4088 31.773C24.5301 32.6517 24.5301 34.0763 25.4088 34.955C26.2874 35.8337 27.7121 35.8337 28.5907 34.955C29.4694 34.0763 29.4694 32.6517 28.5907 31.773C27.7121 30.8944 26.2874 30.8944 25.4088 31.773ZM31.7727 25.4091C30.894 26.2878 30.894 27.7124 31.7727 28.5911C32.6514 29.4697 34.076 29.4697 34.9547 28.5911C35.8334 27.7124 35.8334 26.2878 34.9547 25.4091C34.076 24.5304 32.6514 24.5304 31.7727 25.4091Z" fill="#181930"/>
<path fill-rule="evenodd" clip-rule="evenodd" d="M23.6589 45.9325C19.2909 48.8264 13.3477 48.3491 9.49915 44.5006C5.65061 40.6521 5.17332 34.7089 8.06729 30.3408L23.6589 45.9325Z" fill="#4BE8C5"/>
<path fill-rule="evenodd" clip-rule="evenodd" d="M28.75 9.65811C33.1181 6.76414 39.0612 7.24143 42.9098 11.09C46.7583 14.9385 47.2356 20.8817 44.3416 25.2498L28.75 9.65811Z" fill="#4BE8C5"/>
</svg>
