<svg width="12" height="12" viewBox="0 0 12 12" fill="none" xmlns="http://www.w3.org/2000/svg">
<path d="M8.12264 3.17229L3.17289 8.12203C2.97763 8.31729 2.97763 8.63388 3.17289 8.82914C3.36815 9.0244 3.68473 9.0244 3.88 8.82914L8.82974 3.87939C9.02501 3.68413 9.02501 3.36755 8.82974 3.17229C8.63448 2.97702 8.3179 2.97702 8.12264 3.17229Z" fill="#666666"/>
<path d="M8.82967 8.12068L3.87992 3.17094C3.68466 2.97567 3.36808 2.97567 3.17281 3.17094C2.97755 3.3662 2.97755 3.68278 3.17281 3.87804L8.12256 8.82779C8.31782 9.02305 8.63441 9.02305 8.82967 8.82779C9.02493 8.63253 9.02493 8.31595 8.82967 8.12068Z" fill="#666666"/>
</svg>
