<svg width="719" height="719" viewBox="0 0 719 719" fill="none" xmlns="http://www.w3.org/2000/svg">
<g opacity="0.2">
<path d="M80.4156 450.619C86.6372 469.599 94.9012 488.227 105.285 506.213C115.669 524.198 127.669 540.669 140.996 555.547L80.4156 450.619Z" fill="url(#paint0_linear)"/>
<path d="M168.057 582.067L70.9793 413.924C69.2024 404.512 67.8987 395.061 67.0594 385.603L190.623 599.622C182.852 594.166 175.319 588.311 168.057 582.067Z" fill="url(#paint1_linear)"/>
<path d="M209.371 611.743C215.318 615.273 221.378 618.586 227.538 621.679L66.4151 342.606C66.0128 349.487 65.8521 356.392 65.9363 363.307L209.371 611.743Z" fill="url(#paint2_linear)"/>
<path d="M67.9802 324.965L243.597 629.143C248.903 631.418 254.271 633.535 259.693 635.491L70.5304 307.852C69.5138 313.527 68.663 319.234 67.9802 324.965Z" fill="url(#paint3_linear)"/>
<path d="M73.6208 292.854L274.227 640.314C279.117 641.797 284.045 643.153 289.006 644.38L77.4886 278.022C76.0713 282.932 74.7816 287.877 73.6208 292.854Z" fill="url(#paint4_linear)"/>
<path d="M81.6295 264.843L302.489 647.384C307.073 648.293 311.68 649.093 316.306 649.784L86.4591 251.678C84.7445 256.029 83.1342 260.419 81.6295 264.843Z" fill="url(#paint5_linear)"/>
<path d="M91.4025 239.889L328.987 651.397C333.326 651.854 337.679 652.214 342.041 652.478L96.994 228.043C95.041 231.953 93.1769 235.903 91.4025 239.889Z" fill="url(#paint6_linear)"/>
<path d="M102.592 217.389L354.068 652.957C358.202 653.037 362.342 653.029 366.485 652.934L108.821 206.646C106.666 210.187 104.59 213.768 102.592 217.389Z" fill="url(#paint7_linear)"/>
<path d="M114.978 196.96L377.952 652.445C381.907 652.198 385.863 651.871 389.816 651.462L121.761 187.177C119.43 190.396 117.169 193.658 114.978 196.96Z" fill="url(#paint8_linear)"/>
<path d="M128.412 178.346L400.789 650.117C404.583 649.579 408.373 648.965 412.156 648.275L135.691 169.423C133.201 172.355 130.775 175.33 128.412 178.346Z" fill="url(#paint9_linear)"/>
<path d="M142.79 161.369L422.681 646.154C426.327 645.349 429.965 644.472 433.593 643.523L150.525 153.234C147.889 155.902 145.31 158.614 142.79 161.369Z" fill="url(#paint10_linear)"/>
<path d="M158.039 145.899L443.703 640.683C447.21 639.629 450.706 638.507 454.189 637.315L166.199 138.502C163.425 140.922 160.705 143.389 158.039 145.899Z" fill="url(#paint11_linear)"/>
<path d="M174.105 131.844L463.908 633.797C467.283 632.507 470.644 631.151 473.99 629.729L182.669 125.147C179.764 127.333 176.909 129.566 174.105 131.844Z" fill="url(#paint12_linear)"/>
<path d="M190.95 119.138L483.334 625.562C486.581 624.046 489.813 622.465 493.026 620.819L199.903 113.116C196.871 115.076 193.887 117.084 190.95 119.138Z" fill="url(#paint13_linear)"/>
<path d="M208.547 107.735L502.008 616.024C503.413 615.243 504.815 614.448 506.214 613.641C507.93 612.65 509.632 611.645 511.321 610.625L217.879 102.369C216.152 103.322 214.43 104.293 212.714 105.284C211.315 106.091 209.926 106.908 208.547 107.735Z" fill="url(#paint14_linear)"/>
<path d="M226.88 97.6071L519.945 605.212C522.971 603.24 525.949 601.22 528.879 599.154L236.592 92.8993C233.338 94.4038 230.1 95.9729 226.88 97.6071Z" fill="url(#paint15_linear)"/>
<path d="M245.956 88.766L537.14 593.112C540.038 590.913 542.886 588.669 545.683 586.379L256.058 84.7336C252.677 86.0111 249.309 87.3551 245.956 88.766Z" fill="url(#paint16_linear)"/>
<path d="M265.797 81.2502L553.569 579.687C556.336 577.253 559.049 574.774 561.708 572.252L276.305 77.9197C272.791 78.9608 269.288 80.0708 265.797 81.2502Z" fill="url(#paint17_linear)"/>
<path d="M286.436 75.116L569.201 564.88C571.83 562.199 574.4 559.473 576.912 556.705L297.371 72.5252C293.718 73.3166 290.072 74.18 286.436 75.116Z" fill="url(#paint18_linear)"/>
<path d="M307.918 70.4432L583.989 548.612C586.471 545.666 588.889 542.676 591.243 539.646L319.31 68.644C315.508 69.1676 311.71 69.7671 307.918 70.4432Z" fill="url(#paint19_linear)"/>
<path d="M330.308 67.3418L597.87 530.773C600.192 527.537 602.444 524.26 604.625 520.942L342.199 66.4068C338.235 66.6372 334.271 66.9486 330.308 67.3418Z" fill="url(#paint20_linear)"/>
<path d="M353.694 65.9652L610.755 511.208C612.899 507.65 614.965 504.05 616.952 500.412L366.142 65.996C361.998 65.8978 357.847 65.8872 353.694 65.9652Z" fill="url(#paint21_linear)"/>
<path d="M378.2 66.53L622.519 489.702C624.461 485.772 626.313 481.801 628.074 477.794L391.291 67.6735C386.94 67.1954 382.575 66.8139 378.2 66.53Z" fill="url(#paint22_linear)"/>
<path d="M404.01 69.3522L632.98 465.939C634.681 461.562 636.276 457.147 637.765 452.697L417.871 71.8295C413.273 70.894 408.651 70.0679 404.01 69.3522Z" fill="url(#paint23_linear)"/>
<path d="M431.402 74.9153L641.858 439.435C643.258 434.492 644.528 429.513 645.668 424.503L446.239 79.0824C441.33 77.5645 436.383 76.175 431.402 74.9153Z" fill="url(#paint24_linear)"/>
<path d="M460.838 84.018L648.693 409.392C649.684 403.668 650.507 397.912 651.159 392.132L477.018 90.5122C471.687 88.1868 466.291 86.0214 460.838 84.018Z" fill="url(#paint25_linear)"/>
<path d="M493.179 98.1529L652.622 374.316C652.982 367.35 653.094 360.36 652.955 353.361L511.494 108.343C505.502 104.723 499.392 101.325 493.179 98.1529Z" fill="url(#paint26_linear)"/>
<path d="M530.449 120.824L651.624 330.704C650.675 321.011 649.238 311.327 647.303 301.69L553.416 139.073C546.037 132.578 538.37 126.492 530.449 120.824Z" fill="url(#paint27_linear)"/>
<path d="M581.626 167.584L636.717 263.003C630.729 245.856 623.057 229.02 613.642 212.713C604.227 196.405 593.483 181.343 581.626 167.584Z" fill="url(#paint28_linear)"/>
</g>
<defs>
<linearGradient id="paint0_linear" x1="214.792" y1="104.958" x2="510.224" y2="616.66" gradientUnits="userSpaceOnUse">
<stop stop-color="#506EFA"/>
<stop offset="1" stop-color="white" stop-opacity="0"/>
</linearGradient>
<linearGradient id="paint1_linear" x1="214.792" y1="104.958" x2="510.224" y2="616.66" gradientUnits="userSpaceOnUse">
<stop stop-color="#506EFA"/>
<stop offset="1" stop-color="white" stop-opacity="0"/>
</linearGradient>
<linearGradient id="paint2_linear" x1="214.792" y1="104.958" x2="510.224" y2="616.66" gradientUnits="userSpaceOnUse">
<stop stop-color="#506EFA"/>
<stop offset="1" stop-color="white" stop-opacity="0"/>
</linearGradient>
<linearGradient id="paint3_linear" x1="214.792" y1="104.958" x2="510.224" y2="616.66" gradientUnits="userSpaceOnUse">
<stop stop-color="#506EFA"/>
<stop offset="1" stop-color="white" stop-opacity="0"/>
</linearGradient>
<linearGradient id="paint4_linear" x1="214.792" y1="104.958" x2="510.224" y2="616.66" gradientUnits="userSpaceOnUse">
<stop stop-color="#506EFA"/>
<stop offset="1" stop-color="white" stop-opacity="0"/>
</linearGradient>
<linearGradient id="paint5_linear" x1="214.792" y1="104.958" x2="510.224" y2="616.66" gradientUnits="userSpaceOnUse">
<stop stop-color="#506EFA"/>
<stop offset="1" stop-color="white" stop-opacity="0"/>
</linearGradient>
<linearGradient id="paint6_linear" x1="214.792" y1="104.958" x2="510.224" y2="616.66" gradientUnits="userSpaceOnUse">
<stop stop-color="#506EFA"/>
<stop offset="1" stop-color="white" stop-opacity="0"/>
</linearGradient>
<linearGradient id="paint7_linear" x1="214.792" y1="104.958" x2="510.224" y2="616.66" gradientUnits="userSpaceOnUse">
<stop stop-color="#506EFA"/>
<stop offset="1" stop-color="white" stop-opacity="0"/>
</linearGradient>
<linearGradient id="paint8_linear" x1="214.792" y1="104.958" x2="510.224" y2="616.66" gradientUnits="userSpaceOnUse">
<stop stop-color="#506EFA"/>
<stop offset="1" stop-color="white" stop-opacity="0"/>
</linearGradient>
<linearGradient id="paint9_linear" x1="214.792" y1="104.958" x2="510.224" y2="616.66" gradientUnits="userSpaceOnUse">
<stop stop-color="#506EFA"/>
<stop offset="1" stop-color="white" stop-opacity="0"/>
</linearGradient>
<linearGradient id="paint10_linear" x1="214.792" y1="104.958" x2="510.224" y2="616.66" gradientUnits="userSpaceOnUse">
<stop stop-color="#506EFA"/>
<stop offset="1" stop-color="white" stop-opacity="0"/>
</linearGradient>
<linearGradient id="paint11_linear" x1="214.792" y1="104.958" x2="510.224" y2="616.66" gradientUnits="userSpaceOnUse">
<stop stop-color="#506EFA"/>
<stop offset="1" stop-color="white" stop-opacity="0"/>
</linearGradient>
<linearGradient id="paint12_linear" x1="214.792" y1="104.958" x2="510.224" y2="616.66" gradientUnits="userSpaceOnUse">
<stop stop-color="#506EFA"/>
<stop offset="1" stop-color="white" stop-opacity="0"/>
</linearGradient>
<linearGradient id="paint13_linear" x1="214.792" y1="104.958" x2="510.224" y2="616.66" gradientUnits="userSpaceOnUse">
<stop stop-color="#506EFA"/>
<stop offset="1" stop-color="white" stop-opacity="0"/>
</linearGradient>
<linearGradient id="paint14_linear" x1="214.792" y1="104.958" x2="510.224" y2="616.66" gradientUnits="userSpaceOnUse">
<stop stop-color="#506EFA"/>
<stop offset="1" stop-color="white" stop-opacity="0"/>
</linearGradient>
<linearGradient id="paint15_linear" x1="214.792" y1="104.958" x2="510.224" y2="616.66" gradientUnits="userSpaceOnUse">
<stop stop-color="#506EFA"/>
<stop offset="1" stop-color="white" stop-opacity="0"/>
</linearGradient>
<linearGradient id="paint16_linear" x1="214.792" y1="104.958" x2="510.224" y2="616.66" gradientUnits="userSpaceOnUse">
<stop stop-color="#506EFA"/>
<stop offset="1" stop-color="white" stop-opacity="0"/>
</linearGradient>
<linearGradient id="paint17_linear" x1="214.792" y1="104.958" x2="510.224" y2="616.66" gradientUnits="userSpaceOnUse">
<stop stop-color="#506EFA"/>
<stop offset="1" stop-color="white" stop-opacity="0"/>
</linearGradient>
<linearGradient id="paint18_linear" x1="214.792" y1="104.958" x2="510.224" y2="616.66" gradientUnits="userSpaceOnUse">
<stop stop-color="#506EFA"/>
<stop offset="1" stop-color="white" stop-opacity="0"/>
</linearGradient>
<linearGradient id="paint19_linear" x1="214.792" y1="104.958" x2="510.224" y2="616.66" gradientUnits="userSpaceOnUse">
<stop stop-color="#506EFA"/>
<stop offset="1" stop-color="white" stop-opacity="0"/>
</linearGradient>
<linearGradient id="paint20_linear" x1="214.792" y1="104.958" x2="510.224" y2="616.66" gradientUnits="userSpaceOnUse">
<stop stop-color="#506EFA"/>
<stop offset="1" stop-color="white" stop-opacity="0"/>
</linearGradient>
<linearGradient id="paint21_linear" x1="214.792" y1="104.958" x2="510.224" y2="616.66" gradientUnits="userSpaceOnUse">
<stop stop-color="#506EFA"/>
<stop offset="1" stop-color="white" stop-opacity="0"/>
</linearGradient>
<linearGradient id="paint22_linear" x1="214.792" y1="104.958" x2="510.224" y2="616.66" gradientUnits="userSpaceOnUse">
<stop stop-color="#506EFA"/>
<stop offset="1" stop-color="white" stop-opacity="0"/>
</linearGradient>
<linearGradient id="paint23_linear" x1="214.792" y1="104.958" x2="510.224" y2="616.66" gradientUnits="userSpaceOnUse">
<stop stop-color="#506EFA"/>
<stop offset="1" stop-color="white" stop-opacity="0"/>
</linearGradient>
<linearGradient id="paint24_linear" x1="214.792" y1="104.958" x2="510.224" y2="616.66" gradientUnits="userSpaceOnUse">
<stop stop-color="#506EFA"/>
<stop offset="1" stop-color="white" stop-opacity="0"/>
</linearGradient>
<linearGradient id="paint25_linear" x1="214.792" y1="104.958" x2="510.224" y2="616.66" gradientUnits="userSpaceOnUse">
<stop stop-color="#506EFA"/>
<stop offset="1" stop-color="white" stop-opacity="0"/>
</linearGradient>
<linearGradient id="paint26_linear" x1="214.792" y1="104.958" x2="510.224" y2="616.66" gradientUnits="userSpaceOnUse">
<stop stop-color="#506EFA"/>
<stop offset="1" stop-color="white" stop-opacity="0"/>
</linearGradient>
<linearGradient id="paint27_linear" x1="214.792" y1="104.958" x2="510.224" y2="616.66" gradientUnits="userSpaceOnUse">
<stop stop-color="#506EFA"/>
<stop offset="1" stop-color="white" stop-opacity="0"/>
</linearGradient>
<linearGradient id="paint28_linear" x1="214.792" y1="104.958" x2="510.224" y2="616.66" gradientUnits="userSpaceOnUse">
<stop stop-color="#506EFA"/>
<stop offset="1" stop-color="white" stop-opacity="0"/>
</linearGradient>
</defs>
</svg>
