<svg width="719" height="719" viewBox="0 0 719 719" fill="none" xmlns="http://www.w3.org/2000/svg">
<g opacity="0.2">
<path d="M638.51 268.306C632.289 249.326 624.025 230.698 613.641 212.713C603.257 194.727 591.257 178.256 577.93 163.378L638.51 268.306Z" fill="url(#paint0_linear)"/>
<path d="M550.869 136.858L647.947 305.002C649.723 314.413 651.027 323.864 651.866 333.322L528.303 119.303C536.074 124.759 543.607 130.614 550.869 136.858Z" fill="url(#paint1_linear)"/>
<path d="M509.555 107.183C503.608 103.652 497.548 100.339 491.388 97.2467L652.511 376.32C652.913 369.439 653.074 362.534 652.989 355.618L509.555 107.183Z" fill="url(#paint2_linear)"/>
<path d="M650.946 393.96L475.328 89.7821C470.023 87.5075 464.655 85.3908 459.233 83.4338L648.395 411.073C649.412 405.399 650.263 399.692 650.946 393.96Z" fill="url(#paint3_linear)"/>
<path d="M645.305 426.072L444.699 78.6111C439.808 77.128 434.88 75.7721 429.92 74.5449L641.437 440.903C642.855 435.994 644.144 431.048 645.305 426.072Z" fill="url(#paint4_linear)"/>
<path d="M637.296 454.082L416.437 71.5416C411.853 70.6326 407.246 69.8323 402.62 69.1416L632.467 467.247C634.181 462.896 635.792 458.506 637.296 454.082Z" fill="url(#paint5_linear)"/>
<path d="M627.523 479.036L389.939 67.5282C385.6 67.0716 381.247 66.7111 376.885 66.4477L621.932 490.882C623.885 486.972 625.749 483.023 627.523 479.036Z" fill="url(#paint6_linear)"/>
<path d="M616.334 501.537L364.858 65.9684C360.724 65.8885 356.584 65.8959 352.441 65.9913L610.105 512.279C612.259 508.739 614.336 505.157 616.334 501.537Z" fill="url(#paint7_linear)"/>
<path d="M603.948 521.965L340.973 66.4806C337.019 66.7271 333.063 67.0543 329.11 67.463L597.165 531.748C599.496 528.529 601.757 525.267 603.948 521.965Z" fill="url(#paint8_linear)"/>
<path d="M590.514 540.579L318.137 68.8079C314.343 69.3461 310.553 69.9599 306.769 70.6501L583.235 549.502C585.724 546.571 588.151 543.595 590.514 540.579Z" fill="url(#paint9_linear)"/>
<path d="M576.135 557.557L296.244 72.7712C292.599 73.5761 288.961 74.4528 285.333 75.402L568.401 565.691C571.037 563.023 573.616 560.311 576.135 557.557Z" fill="url(#paint10_linear)"/>
<path d="M560.887 573.026L275.223 78.2422C271.716 79.2959 268.22 80.4184 264.736 81.6102L552.727 580.424C555.5 578.003 558.221 575.537 560.887 573.026Z" fill="url(#paint11_linear)"/>
<path d="M544.821 587.081L255.018 85.1284C251.643 86.4179 248.282 87.7739 244.936 89.1967L536.256 593.778C539.162 591.592 542.016 589.359 544.821 587.081Z" fill="url(#paint12_linear)"/>
<path d="M527.976 599.787L235.592 93.3634C232.345 94.8796 229.113 96.4603 225.9 98.106L519.022 605.81C522.054 603.849 525.039 601.841 527.976 599.787Z" fill="url(#paint13_linear)"/>
<path d="M510.379 611.19L216.918 102.901C215.512 103.682 214.11 104.477 212.712 105.284C210.996 106.275 209.294 107.281 207.605 108.301L501.046 616.556C502.774 615.604 504.496 614.632 506.212 613.641C507.61 612.834 508.999 612.017 510.379 611.19Z" fill="url(#paint14_linear)"/>
<path d="M492.046 621.318L198.981 113.714C195.955 115.686 192.977 117.705 190.047 119.771L482.334 626.026C485.588 624.521 488.826 622.952 492.046 621.318Z" fill="url(#paint15_linear)"/>
<path d="M472.97 630.159L181.786 125.814C178.888 128.012 176.04 130.257 173.243 132.546L462.868 634.192C466.249 632.914 469.617 631.57 472.97 630.159Z" fill="url(#paint16_linear)"/>
<path d="M453.129 637.675L165.357 139.239C162.59 141.672 159.877 144.151 157.218 146.674L442.621 641.006C446.135 639.965 449.638 638.855 453.129 637.675Z" fill="url(#paint17_linear)"/>
<path d="M432.49 643.809L149.725 154.045C147.096 156.726 144.525 159.452 142.014 162.22L421.555 646.4C425.208 645.609 428.854 644.745 432.49 643.809Z" fill="url(#paint18_linear)"/>
<path d="M411.008 648.482L134.937 170.313C132.455 173.259 130.037 176.249 127.683 179.28L399.616 650.281C403.417 649.758 407.215 649.158 411.008 648.482Z" fill="url(#paint19_linear)"/>
<path d="M388.618 651.584L121.056 188.153C118.734 191.388 116.482 194.666 114.301 197.983L376.727 652.518C380.691 652.288 384.655 651.977 388.618 651.584Z" fill="url(#paint20_linear)"/>
<path d="M365.232 652.96L108.171 207.717C106.026 211.275 103.96 214.875 101.973 218.513L352.783 652.929C356.928 653.028 361.078 653.038 365.232 652.96Z" fill="url(#paint21_linear)"/>
<path d="M340.725 652.395L96.4067 229.223C94.4651 233.154 92.6131 237.124 90.8516 241.132L327.635 651.252C331.986 651.73 336.351 652.111 340.725 652.395Z" fill="url(#paint22_linear)"/>
<path d="M314.916 649.573L85.946 252.986C84.2452 257.363 82.6497 261.779 81.1608 266.228L301.055 647.096C305.653 648.031 310.275 648.857 314.916 649.573Z" fill="url(#paint23_linear)"/>
<path d="M287.523 644.01L77.0676 279.49C75.6682 284.433 74.3979 289.412 73.2581 294.422L272.687 639.843C277.596 641.361 282.543 642.75 287.523 644.01Z" fill="url(#paint24_linear)"/>
<path d="M258.088 634.907L70.2328 309.533C69.2416 315.257 68.4189 321.013 67.7669 326.793L241.907 628.413C247.239 630.738 252.635 632.904 258.088 634.907Z" fill="url(#paint25_linear)"/>
<path d="M225.746 620.772L66.3034 344.609C65.9439 351.576 65.8319 358.565 65.9711 365.565L207.432 610.582C213.424 614.203 219.533 617.6 225.746 620.772Z" fill="url(#paint26_linear)"/>
<path d="M188.477 598.101L67.3022 388.221C68.2505 397.915 69.6876 407.598 71.6231 417.236L165.51 579.852C172.888 586.347 180.556 592.433 188.477 598.101Z" fill="url(#paint27_linear)"/>
<path d="M137.299 551.341L82.2089 455.922C88.1963 473.07 95.8686 489.905 105.284 506.213C114.699 522.52 125.443 537.582 137.299 551.341Z" fill="url(#paint28_linear)"/>
</g>
<defs>
<linearGradient id="paint0_linear" x1="504.133" y1="613.968" x2="208.702" y2="102.265" gradientUnits="userSpaceOnUse">
<stop stop-color="#506EFA"/>
<stop offset="1" stop-color="white" stop-opacity="0"/>
</linearGradient>
<linearGradient id="paint1_linear" x1="504.133" y1="613.968" x2="208.702" y2="102.265" gradientUnits="userSpaceOnUse">
<stop stop-color="#506EFA"/>
<stop offset="1" stop-color="white" stop-opacity="0"/>
</linearGradient>
<linearGradient id="paint2_linear" x1="504.133" y1="613.968" x2="208.702" y2="102.265" gradientUnits="userSpaceOnUse">
<stop stop-color="#506EFA"/>
<stop offset="1" stop-color="white" stop-opacity="0"/>
</linearGradient>
<linearGradient id="paint3_linear" x1="504.133" y1="613.968" x2="208.702" y2="102.265" gradientUnits="userSpaceOnUse">
<stop stop-color="#506EFA"/>
<stop offset="1" stop-color="white" stop-opacity="0"/>
</linearGradient>
<linearGradient id="paint4_linear" x1="504.133" y1="613.968" x2="208.702" y2="102.265" gradientUnits="userSpaceOnUse">
<stop stop-color="#506EFA"/>
<stop offset="1" stop-color="white" stop-opacity="0"/>
</linearGradient>
<linearGradient id="paint5_linear" x1="504.133" y1="613.968" x2="208.702" y2="102.265" gradientUnits="userSpaceOnUse">
<stop stop-color="#506EFA"/>
<stop offset="1" stop-color="white" stop-opacity="0"/>
</linearGradient>
<linearGradient id="paint6_linear" x1="504.133" y1="613.968" x2="208.702" y2="102.265" gradientUnits="userSpaceOnUse">
<stop stop-color="#506EFA"/>
<stop offset="1" stop-color="white" stop-opacity="0"/>
</linearGradient>
<linearGradient id="paint7_linear" x1="504.133" y1="613.968" x2="208.702" y2="102.265" gradientUnits="userSpaceOnUse">
<stop stop-color="#506EFA"/>
<stop offset="1" stop-color="white" stop-opacity="0"/>
</linearGradient>
<linearGradient id="paint8_linear" x1="504.133" y1="613.968" x2="208.702" y2="102.265" gradientUnits="userSpaceOnUse">
<stop stop-color="#506EFA"/>
<stop offset="1" stop-color="white" stop-opacity="0"/>
</linearGradient>
<linearGradient id="paint9_linear" x1="504.133" y1="613.968" x2="208.702" y2="102.265" gradientUnits="userSpaceOnUse">
<stop stop-color="#506EFA"/>
<stop offset="1" stop-color="white" stop-opacity="0"/>
</linearGradient>
<linearGradient id="paint10_linear" x1="504.133" y1="613.968" x2="208.702" y2="102.265" gradientUnits="userSpaceOnUse">
<stop stop-color="#506EFA"/>
<stop offset="1" stop-color="white" stop-opacity="0"/>
</linearGradient>
<linearGradient id="paint11_linear" x1="504.133" y1="613.968" x2="208.702" y2="102.265" gradientUnits="userSpaceOnUse">
<stop stop-color="#506EFA"/>
<stop offset="1" stop-color="white" stop-opacity="0"/>
</linearGradient>
<linearGradient id="paint12_linear" x1="504.133" y1="613.968" x2="208.702" y2="102.265" gradientUnits="userSpaceOnUse">
<stop stop-color="#506EFA"/>
<stop offset="1" stop-color="white" stop-opacity="0"/>
</linearGradient>
<linearGradient id="paint13_linear" x1="504.133" y1="613.968" x2="208.702" y2="102.265" gradientUnits="userSpaceOnUse">
<stop stop-color="#506EFA"/>
<stop offset="1" stop-color="white" stop-opacity="0"/>
</linearGradient>
<linearGradient id="paint14_linear" x1="504.133" y1="613.968" x2="208.702" y2="102.265" gradientUnits="userSpaceOnUse">
<stop stop-color="#506EFA"/>
<stop offset="1" stop-color="white" stop-opacity="0"/>
</linearGradient>
<linearGradient id="paint15_linear" x1="504.133" y1="613.968" x2="208.702" y2="102.265" gradientUnits="userSpaceOnUse">
<stop stop-color="#506EFA"/>
<stop offset="1" stop-color="white" stop-opacity="0"/>
</linearGradient>
<linearGradient id="paint16_linear" x1="504.133" y1="613.968" x2="208.702" y2="102.265" gradientUnits="userSpaceOnUse">
<stop stop-color="#506EFA"/>
<stop offset="1" stop-color="white" stop-opacity="0"/>
</linearGradient>
<linearGradient id="paint17_linear" x1="504.133" y1="613.968" x2="208.702" y2="102.265" gradientUnits="userSpaceOnUse">
<stop stop-color="#506EFA"/>
<stop offset="1" stop-color="white" stop-opacity="0"/>
</linearGradient>
<linearGradient id="paint18_linear" x1="504.133" y1="613.968" x2="208.702" y2="102.265" gradientUnits="userSpaceOnUse">
<stop stop-color="#506EFA"/>
<stop offset="1" stop-color="white" stop-opacity="0"/>
</linearGradient>
<linearGradient id="paint19_linear" x1="504.133" y1="613.968" x2="208.702" y2="102.265" gradientUnits="userSpaceOnUse">
<stop stop-color="#506EFA"/>
<stop offset="1" stop-color="white" stop-opacity="0"/>
</linearGradient>
<linearGradient id="paint20_linear" x1="504.133" y1="613.968" x2="208.702" y2="102.265" gradientUnits="userSpaceOnUse">
<stop stop-color="#506EFA"/>
<stop offset="1" stop-color="white" stop-opacity="0"/>
</linearGradient>
<linearGradient id="paint21_linear" x1="504.133" y1="613.968" x2="208.702" y2="102.265" gradientUnits="userSpaceOnUse">
<stop stop-color="#506EFA"/>
<stop offset="1" stop-color="white" stop-opacity="0"/>
</linearGradient>
<linearGradient id="paint22_linear" x1="504.133" y1="613.968" x2="208.702" y2="102.265" gradientUnits="userSpaceOnUse">
<stop stop-color="#506EFA"/>
<stop offset="1" stop-color="white" stop-opacity="0"/>
</linearGradient>
<linearGradient id="paint23_linear" x1="504.133" y1="613.968" x2="208.702" y2="102.265" gradientUnits="userSpaceOnUse">
<stop stop-color="#506EFA"/>
<stop offset="1" stop-color="white" stop-opacity="0"/>
</linearGradient>
<linearGradient id="paint24_linear" x1="504.133" y1="613.968" x2="208.702" y2="102.265" gradientUnits="userSpaceOnUse">
<stop stop-color="#506EFA"/>
<stop offset="1" stop-color="white" stop-opacity="0"/>
</linearGradient>
<linearGradient id="paint25_linear" x1="504.133" y1="613.968" x2="208.702" y2="102.265" gradientUnits="userSpaceOnUse">
<stop stop-color="#506EFA"/>
<stop offset="1" stop-color="white" stop-opacity="0"/>
</linearGradient>
<linearGradient id="paint26_linear" x1="504.133" y1="613.968" x2="208.702" y2="102.265" gradientUnits="userSpaceOnUse">
<stop stop-color="#506EFA"/>
<stop offset="1" stop-color="white" stop-opacity="0"/>
</linearGradient>
<linearGradient id="paint27_linear" x1="504.133" y1="613.968" x2="208.702" y2="102.265" gradientUnits="userSpaceOnUse">
<stop stop-color="#506EFA"/>
<stop offset="1" stop-color="white" stop-opacity="0"/>
</linearGradient>
<linearGradient id="paint28_linear" x1="504.133" y1="613.968" x2="208.702" y2="102.265" gradientUnits="userSpaceOnUse">
<stop stop-color="#506EFA"/>
<stop offset="1" stop-color="white" stop-opacity="0"/>
</linearGradient>
</defs>
</svg>
