<svg id="Layer_1" data-name="Layer 1" xmlns="http://www.w3.org/2000/svg" xmlns:xlink="http://www.w3.org/1999/xlink" viewBox="0 0 1476 1491"><defs><style>.cls-1,.cls-2,.cls-3,.cls-4,.cls-5,.cls-6,.cls-7,.cls-8,.cls-9{fill:none;stroke-width:0.75px;}.cls-1{stroke:url(#linear-gradient);}.cls-2{stroke:url(#linear-gradient-2);}.cls-3{stroke:url(#linear-gradient-3);}.cls-4{stroke:url(#linear-gradient-4);}.cls-5{stroke:url(#linear-gradient-5);}.cls-6{stroke:url(#linear-gradient-6);}.cls-7{stroke:url(#linear-gradient-7);}.cls-8{stroke:url(#linear-gradient-8);}.cls-9{stroke:url(#linear-gradient-9);}</style><linearGradient id="linear-gradient" x1="751" y1="921" x2="751" y2="573" gradientTransform="matrix(1, 0, 0, -1, 0, 1492)" gradientUnits="userSpaceOnUse"><stop offset="0" stop-color="#4be8c5" stop-opacity="0"/><stop offset="0.51" stop-color="#4be8c5"/><stop offset="1" stop-color="#4be8c5" stop-opacity="0"/></linearGradient><linearGradient id="linear-gradient-2" y1="972" y2="521" xlink:href="#linear-gradient"/><linearGradient id="linear-gradient-3" y1="1030" y2="463" xlink:href="#linear-gradient"/><linearGradient id="linear-gradient-4" y1="1095" y2="400" xlink:href="#linear-gradient"/><linearGradient id="linear-gradient-5" y1="1165" y2="330" xlink:href="#linear-gradient"/><linearGradient id="linear-gradient-6" y1="1242" y2="252" xlink:href="#linear-gradient"/><linearGradient id="linear-gradient-7" y1="1319" y2="177" xlink:href="#linear-gradient"/><linearGradient id="linear-gradient-8" y1="1402" y2="93" xlink:href="#linear-gradient"/><linearGradient id="linear-gradient-9" x1="738" y1="1492" x2="738" y2="1" xlink:href="#linear-gradient"/></defs><path class="cls-1" d="M922.62,745c0,95.89-76.84,173.62-171.62,173.62S579.38,840.89,579.38,745,656.22,571.38,751,571.38,922.62,649.11,922.62,745Z"/><path class="cls-2" d="M973.62,745.5C973.62,869.84,874,970.62,751,970.62S528.38,869.84,528.38,745.5,628.05,520.38,751,520.38,973.62,621.16,973.62,745.5Z"/><path class="cls-3" d="M1030.62,745.5c0,156.37-125.19,283.12-279.62,283.12S471.38,901.87,471.38,745.5,596.57,462.38,751,462.38,1030.62,589.13,1030.62,745.5Z"/><path class="cls-4" d="M1094.62,744.5c0,191.71-153.85,347.12-343.62,347.12S407.38,936.21,407.38,744.5,561.23,397.38,751,397.38,1094.62,552.79,1094.62,744.5Z"/><path class="cls-5" d="M1163.62,744.5c0,230.37-184.74,417.12-412.62,417.12S338.38,974.87,338.38,744.5,523.12,327.38,751,327.38,1163.62,514.13,1163.62,744.5Z"/><path class="cls-6" d="M1240.62,745c0,273.18-219.21,494.62-489.62,494.62S261.38,1018.18,261.38,745,480.59,250.38,751,250.38,1240.62,471.82,1240.62,745Z"/><path class="cls-7" d="M1316.62,744c0,315.15-253.24,570.62-565.62,570.62S185.38,1059.15,185.38,744,438.62,173.38,751,173.38,1316.62,428.85,1316.62,744Z"/><path class="cls-8" d="M1398.62,744.5c0,361.27-289.95,654.12-647.62,654.12S103.38,1105.77,103.38,744.5,393.33,90.38,751,90.38,1398.62,383.23,1398.62,744.5Z"/><path class="cls-9" d="M1475.62,745.5c0,411.52-330.25,745.12-737.62,745.12S.38,1157,.38,745.5,330.63.38,738,.38,1475.62,334,1475.62,745.5Z"/></svg>