<svg id="Layer_1" data-name="Layer 1" xmlns="http://www.w3.org/2000/svg" xmlns:xlink="http://www.w3.org/1999/xlink" viewBox="0 0 274 274"><defs><style>.cls-1{opacity:0.3;}.cls-2{fill:url(#linear-gradient);}.cls-3{fill:url(#linear-gradient-2);}.cls-4{fill:url(#linear-gradient-3);}.cls-5{fill:url(#linear-gradient-4);}.cls-6{fill:url(#linear-gradient-5);}.cls-7{fill:url(#linear-gradient-6);}.cls-8{fill:url(#linear-gradient-7);}.cls-9{fill:url(#linear-gradient-8);}.cls-10{fill:url(#linear-gradient-9);}.cls-11{fill:url(#linear-gradient-10);}.cls-12{fill:url(#linear-gradient-11);}.cls-13{fill:url(#linear-gradient-12);}.cls-14{fill:url(#linear-gradient-13);}.cls-15{fill:url(#linear-gradient-14);}.cls-16{fill:url(#linear-gradient-15);}.cls-17{fill:url(#linear-gradient-16);}.cls-18{fill:url(#linear-gradient-17);}.cls-19{fill:url(#linear-gradient-18);}.cls-20{fill:url(#linear-gradient-19);}.cls-21{fill:url(#linear-gradient-20);}.cls-22{fill:url(#linear-gradient-21);}.cls-23{fill:url(#linear-gradient-22);}.cls-24{fill:url(#linear-gradient-23);}.cls-25{fill:url(#linear-gradient-24);}.cls-26{fill:url(#linear-gradient-25);}.cls-27{fill:url(#linear-gradient-26);}.cls-28{fill:url(#linear-gradient-27);}.cls-29{fill:url(#linear-gradient-28);}.cls-30{fill:url(#linear-gradient-29);}</style><linearGradient id="linear-gradient" x1="-55.46" y1="139.78" x2="139.56" y2="-55.24" gradientTransform="matrix(1, 0, 0, -1, 0, 268)" gradientUnits="userSpaceOnUse"><stop offset="0" stop-color="#fff"/><stop offset="1" stop-color="#fff" stop-opacity="0"/></linearGradient><linearGradient id="linear-gradient-2" x1="-49.3" y1="145.95" x2="145.73" y2="-49.07" xlink:href="#linear-gradient"/><linearGradient id="linear-gradient-3" x1="-42.38" y1="152.86" x2="152.64" y2="-42.16" xlink:href="#linear-gradient"/><linearGradient id="linear-gradient-4" x1="-35.47" y1="159.78" x2="159.55" y2="-35.25" xlink:href="#linear-gradient"/><linearGradient id="linear-gradient-5" x1="-28.56" y1="166.69" x2="166.46" y2="-28.33" xlink:href="#linear-gradient"/><linearGradient id="linear-gradient-6" x1="-21.65" y1="173.6" x2="173.37" y2="-21.42" xlink:href="#linear-gradient"/><linearGradient id="linear-gradient-7" x1="-14.74" y1="180.51" x2="180.28" y2="-14.51" xlink:href="#linear-gradient"/><linearGradient id="linear-gradient-8" x1="-7.83" y1="187.42" x2="187.2" y2="-7.6" xlink:href="#linear-gradient"/><linearGradient id="linear-gradient-9" x1="-0.91" y1="194.33" x2="194.11" y2="-0.69" xlink:href="#linear-gradient"/><linearGradient id="linear-gradient-10" x1="6" y1="201.25" x2="201.02" y2="6.22" xlink:href="#linear-gradient"/><linearGradient id="linear-gradient-11" x1="12.91" y1="208.16" x2="207.93" y2="13.14" xlink:href="#linear-gradient"/><linearGradient id="linear-gradient-12" x1="19.82" y1="215.07" x2="214.84" y2="20.05" xlink:href="#linear-gradient"/><linearGradient id="linear-gradient-13" x1="26.73" y1="221.98" x2="221.76" y2="26.96" xlink:href="#linear-gradient"/><linearGradient id="linear-gradient-14" x1="33.52" y1="229.02" x2="228.54" y2="34" xlink:href="#linear-gradient"/><linearGradient id="linear-gradient-15" x1="40.56" y1="235.8" x2="235.58" y2="40.78" xlink:href="#linear-gradient"/><linearGradient id="linear-gradient-16" x1="47.36" y1="242.82" x2="242.38" y2="47.8" xlink:href="#linear-gradient"/><linearGradient id="linear-gradient-17" x1="54.38" y1="249.63" x2="249.4" y2="54.61" xlink:href="#linear-gradient"/><linearGradient id="linear-gradient-18" x1="61.29" y1="256.54" x2="256.31" y2="61.52" xlink:href="#linear-gradient"/><linearGradient id="linear-gradient-19" x1="68.2" y1="263.45" x2="263.23" y2="68.43" xlink:href="#linear-gradient"/><linearGradient id="linear-gradient-20" x1="75.12" y1="270.36" x2="270.14" y2="75.34" xlink:href="#linear-gradient"/><linearGradient id="linear-gradient-21" x1="82.03" y1="277.28" x2="277.05" y2="82.25" xlink:href="#linear-gradient"/><linearGradient id="linear-gradient-22" x1="88.94" y1="284.19" x2="283.96" y2="89.17" xlink:href="#linear-gradient"/><linearGradient id="linear-gradient-23" x1="95.85" y1="291.1" x2="290.87" y2="96.08" xlink:href="#linear-gradient"/><linearGradient id="linear-gradient-24" x1="102.76" y1="298.01" x2="297.79" y2="102.99" xlink:href="#linear-gradient"/><linearGradient id="linear-gradient-25" x1="109.68" y1="304.92" x2="304.7" y2="109.9" xlink:href="#linear-gradient"/><linearGradient id="linear-gradient-26" x1="116.59" y1="311.83" x2="311.61" y2="116.81" xlink:href="#linear-gradient"/><linearGradient id="linear-gradient-27" x1="123.5" y1="318.75" x2="318.52" y2="123.72" xlink:href="#linear-gradient"/><linearGradient id="linear-gradient-28" x1="130.41" y1="325.66" x2="325.43" y2="130.64" xlink:href="#linear-gradient"/><linearGradient id="linear-gradient-29" x1="136.4" y1="331.65" x2="331.42" y2="136.62" xlink:href="#linear-gradient"/></defs><g class="cls-1"><path class="cls-2" d="M22.2,203.81a138.36,138.36,0,0,0,40,40Z" transform="translate(0 8)"/><path class="cls-3" d="M77.59,252.49,13.51,188.41c-1.94-4-3.67-8.14-5.19-12.3l81.57,81.57C85.73,256.16,81.62,254.43,77.59,252.49Z" transform="translate(0 8)"/><path class="cls-4" d="M99.81,260.88c3.1.87,6.24,1.64,9.39,2.29L2.84,156.8c.65,3.15,1.41,6.29,2.28,9.4Z" transform="translate(0 8)"/><path class="cls-5" d="M1.41,148.66,117.34,264.59c2.67.39,5.34.69,8,.92L.49,140.64Q.84,144.66,1.41,148.66Z" transform="translate(0 8)"/><path class="cls-6" d="M.07,133.5,132.5,265.93c2.38.07,4.77.09,7.15,0L0,126.35C0,128.73,0,131.12.07,133.5Z" transform="translate(0 8)"/><path class="cls-7" d="M.3,119.9,146.1,265.7c2.17-.14,4.35-.34,6.52-.59L.89,113.39C.64,115.55.44,117.73.3,119.9Z" transform="translate(0 8)"/><path class="cls-8" d="M1.69,107.47,158.53,264.31c2-.32,4-.68,6-1.09L2.78,101.46C2.37,103.45,2,105.46,1.69,107.47Z" transform="translate(0 8)"/><path class="cls-9" d="M4,96,170,262c1.88-.46,3.74-1,5.6-1.51L5.53,90.38C5,92.24,4.48,94.1,4,96Z" transform="translate(0 8)"/><path class="cls-10" d="M7.14,85.27,180.73,258.86c1.76-.58,3.5-1.21,5.23-1.87L9,80C8.35,81.77,7.72,83.51,7.14,85.27Z" transform="translate(0 8)"/><path class="cls-11" d="M10.94,75.25,190.75,255.06c1.64-.71,3.28-1.44,4.9-2.21L13.15,70.35C12.38,72,11.64,73.61,10.94,75.25Z" transform="translate(0 8)"/><path class="cls-12" d="M15.38,65.86,200.14,250.63c1.54-.81,3.08-1.64,4.6-2.51L17.88,61.26Q16.58,63.54,15.38,65.86Z" transform="translate(0 8)"/><path class="cls-13" d="M20.38,57,209,245.62q2.17-1.35,4.32-2.79L23.17,52.72Q21.73,54.86,20.38,57Z" transform="translate(0 8)"/><path class="cls-14" d="M25.93,48.77l191.3,191.3c1.37-1,2.72-2,4.06-3L29,44.71C27.93,46.05,26.92,47.4,25.93,48.77Z" transform="translate(0 8)"/><path class="cls-15" d="M32,41,225,234c1.28-1.07,2.54-2.18,3.79-3.31L35.3,37.21C34.17,38.46,33.06,39.72,32,41Z" transform="translate(0 8)"/><path class="cls-16" d="M38.54,33.73,232.26,227.46c.54-.53,1.08-1.05,1.61-1.59s1.3-1.31,1.94-2L42.1,30.19c-.66.64-1.32,1.28-2,1.94S39.07,33.2,38.54,33.73Z" transform="translate(0 8)"/><path class="cls-17" d="M45.59,27,239.05,220.41q1.68-1.87,3.29-3.81L49.4,23.66Q47.47,25.27,45.59,27Z" transform="translate(0 8)"/><path class="cls-18" d="M53.12,20.66,245.34,212.88q1.56-2,3-4.07L57.19,17.62Q55.14,19.1,53.12,20.66Z" transform="translate(0 8)"/><path class="cls-19" d="M61.16,14.88l190,190q1.44-2.15,2.77-4.33L65.49,12.11Q63.3,13.45,61.16,14.88Z" transform="translate(0 8)"/><path class="cls-20" d="M69.72,9.62,256.38,196.28q1.29-2.29,2.49-4.62L74.34,7.13Q72,8.33,69.72,9.62Z" transform="translate(0 8)"/><path class="cls-21" d="M78.84,4.92,261.08,187.16q1.16-2.44,2.19-4.92L83.76,2.73Q81.29,3.76,78.84,4.92Z" transform="translate(0 8)"/><path class="cls-22" d="M88.56.81,265.19,177.44q1-2.61,1.86-5.25L93.81-1Q91.17-.16,88.56.81Z" transform="translate(0 8)"/><path class="cls-23" d="M98.94-2.63,268.63,167.06c.54-1.86,1-3.74,1.49-5.62L104.56-4.12C102.68-3.67,100.8-3.17,98.94-2.63Z" transform="translate(0 8)"/><path class="cls-24" d="M110.06-5.34,271.34,155.94q.6-3,1.07-6L116.1-6.41Q113.07-5.94,110.06-5.34Z" transform="translate(0 8)"/><path class="cls-25" d="M122-7.19,273.18,144c.24-2.17.43-4.36.56-6.55L128.59-7.74C126.4-7.61,124.21-7.42,122-7.19Z" transform="translate(0 8)"/><path class="cls-26" d="M135.06-8,274,130.94q0-3.6-.09-7.19L142.25-7.9C139.85-8,137.46-8,135.06-8Z" transform="translate(0 8)"/><path class="cls-27" d="M149.43-7.44l124,124c-.25-2.7-.57-5.39-1-8.08L157.51-6.47Q153.48-7.07,149.43-7.44Z" transform="translate(0 8)"/><path class="cls-28" d="M165.72-5,271,100.28c-.68-3.18-1.47-6.35-2.38-9.49L175.21-2.59C172.07-3.5,168.9-4.29,165.72-5Z" transform="translate(0 8)"/><path class="cls-29" d="M185.26.75l80,80a134.94,134.94,0,0,0-5.45-12.56l-62-62A134.94,134.94,0,0,0,185.26.75Z" transform="translate(0 8)"/><path class="cls-30" d="M214,15.65,250.35,52A138.68,138.68,0,0,0,214,15.65Z" transform="translate(0 8)"/></g></svg>