<svg width="336" height="229" viewBox="0 0 336 229" fill="none" xmlns="http://www.w3.org/2000/svg">
<g opacity="0.3">
<path d="M30.7841 293.754C37.8546 304.58 46.1432 314.844 55.6497 324.35C65.1562 333.857 75.4195 342.145 86.2457 349.216L30.7841 293.754Z" fill="url(#paint0_linear)"/>
<path d="M107.61 361.265L18.7353 272.39C16.0474 266.803 13.6486 261.111 11.5391 255.338L124.662 368.461C118.889 366.351 113.197 363.953 107.61 361.265Z" fill="url(#paint1_linear)"/>
<path d="M138.416 372.899C142.726 374.11 147.071 375.167 151.441 376.068L3.93202 228.559C4.83342 232.929 5.88981 237.274 7.10117 241.584L138.416 372.899Z" fill="url(#paint2_linear)"/>
<path d="M1.95512 217.267L162.733 378.045C166.432 378.578 170.143 379.002 173.862 379.318L0.682417 206.138C0.997525 209.857 1.42176 213.568 1.95512 217.267Z" fill="url(#paint3_linear)"/>
<path d="M0.101924 196.242L183.758 379.898C187.064 380.006 190.373 380.028 193.68 379.965L0.035422 186.32C-0.0282501 189.627 -0.00608286 192.936 0.101924 196.242Z" fill="url(#paint4_linear)"/>
<path d="M0.416643 177.385L202.615 379.583C205.633 379.384 208.648 379.112 211.656 378.769L1.23078 168.344C0.88766 171.352 0.616277 174.367 0.416643 177.385Z" fill="url(#paint5_linear)"/>
<path d="M2.34671 160.144L219.856 377.653C222.646 377.212 225.428 376.708 228.2 376.142L3.85831 151.8C3.29214 154.572 2.78827 157.354 2.34671 160.144Z" fill="url(#paint6_linear)"/>
<path d="M5.57364 144.199L235.801 374.426C238.399 373.784 240.987 373.085 243.561 372.332L7.66847 136.439C6.91461 139.013 6.21633 141.601 5.57364 144.199Z" fill="url(#paint7_linear)"/>
<path d="M9.8957 129.35L250.65 370.104C253.082 369.287 255.5 368.42 257.904 367.502L12.4978 122.096C11.5799 124.5 10.7125 126.918 9.8957 129.35Z" fill="url(#paint8_linear)"/>
<path d="M15.1773 115.46L264.54 364.823C266.822 363.851 269.089 362.832 271.339 361.766L18.2338 108.661C17.1683 110.911 16.1494 113.178 15.1773 115.46Z" fill="url(#paint9_linear)"/>
<path d="M21.3236 102.435L277.565 358.676C279.71 357.562 281.838 356.405 283.947 355.203L24.7969 96.0526C23.5955 98.1624 22.4377 100.29 21.3236 102.435Z" fill="url(#paint10_linear)"/>
<path d="M28.2668 90.2067L289.793 351.733C291.81 350.487 293.807 349.199 295.786 347.87L32.1297 84.214C30.8008 86.1925 29.5132 88.1905 28.2668 90.2067Z" fill="url(#paint11_linear)"/>
<path d="M35.9579 78.7265L301.274 344.042C303.168 342.67 305.042 341.259 306.896 339.809L40.1911 73.1039C38.7408 74.9578 37.3297 76.8323 35.9579 78.7265Z" fill="url(#paint12_linear)"/>
<path d="M44.3621 67.9592L312.041 335.638C313.817 334.146 315.573 332.616 317.307 331.048L48.9516 62.6931C47.3841 64.4269 45.8543 66.1826 44.3621 67.9592Z" fill="url(#paint13_linear)"/>
<path d="M53.4547 57.8804L322.12 326.545C322.868 325.821 323.611 325.089 324.35 324.35C325.257 323.443 326.153 322.529 327.038 321.608L58.3916 52.9616C57.4709 53.8465 56.5568 54.7426 55.6497 55.6497C54.9107 56.3887 54.179 57.1323 53.4547 57.8804Z" fill="url(#paint14_linear)"/>
<path d="M63.2214 48.4757L331.524 316.779C333.086 315.039 334.609 313.277 336.095 311.494L68.506 43.9046C66.7233 45.3906 64.9614 46.9143 63.2214 48.4757Z" fill="url(#paint15_linear)"/>
<path d="M73.6684 39.7512L340.249 306.332C341.693 304.471 343.098 302.59 344.463 300.69L79.3099 35.5371C77.4095 36.9025 75.5286 38.3072 73.6684 39.7512Z" fill="url(#paint16_linear)"/>
<path d="M84.8158 31.7272L348.273 295.184C349.595 293.199 350.876 291.194 352.116 289.171L90.8285 27.884C88.8057 29.1238 86.801 30.4048 84.8158 31.7272Z" fill="url(#paint17_linear)"/>
<path d="M96.6936 24.4335L355.567 283.306C356.761 281.189 357.912 279.055 359.019 276.903L103.097 20.9813C100.945 22.0882 98.8105 23.2389 96.6936 24.4335Z" fill="url(#paint18_linear)"/>
<path d="M109.344 17.9121L362.088 270.656C363.146 268.398 364.157 266.124 365.122 263.834L116.166 14.8784C113.876 15.8428 111.602 16.854 109.344 17.9121Z" fill="url(#paint19_linear)"/>
<path d="M122.824 12.2215L367.779 257.176C368.688 254.764 369.547 252.337 370.355 249.897L130.103 9.64452C127.663 10.4527 125.236 11.3117 122.824 12.2215Z" fill="url(#paint20_linear)"/>
<path d="M137.217 7.44243L372.558 242.783C373.302 240.199 373.991 237.602 374.624 234.994L145.006 5.37596C142.398 6.0089 139.801 6.69773 137.217 7.44243Z" fill="url(#paint21_linear)"/>
<path d="M152.636 3.68957L376.31 227.364C376.866 224.581 377.359 221.788 377.789 218.987L161.013 2.21125C158.212 2.64129 155.419 3.13407 152.636 3.68957Z" fill="url(#paint22_linear)"/>
<path d="M169.247 1.1299L378.87 210.753C379.2 207.731 379.458 204.702 379.643 201.67L178.33 0.356536C175.298 0.541971 172.269 0.799775 169.247 1.1299Z" fill="url(#paint23_linear)"/>
<path d="M187.308 0.0189513L379.981 192.692C380.028 189.367 379.988 186.04 379.861 182.717L197.283 0.138786C193.96 0.0120784 190.633 -0.0278755 187.308 0.0189513Z" fill="url(#paint24_linear)"/>
<path d="M207.239 0.778922L379.221 172.761C378.882 169.016 378.432 165.279 377.871 161.555L218.445 2.12878C214.721 1.56805 210.984 1.1181 207.239 0.778922Z" fill="url(#paint25_linear)"/>
<path d="M229.83 4.19875L375.801 150.17C374.859 145.753 373.758 141.364 372.498 137.01L242.99 7.50204C238.636 6.24229 234.247 5.1412 229.83 4.19875Z" fill="url(#paint26_linear)"/>
<path d="M256.934 12.1304L367.87 123.066C365.652 117.164 363.131 111.349 360.306 105.647L274.353 19.6937C268.651 16.8687 262.836 14.3476 256.934 12.1304Z" fill="url(#paint27_linear)"/>
<path d="M296.77 32.7949L347.205 83.2303C340.588 73.511 332.97 64.2693 324.35 55.6497C315.731 47.0301 306.489 39.4119 296.77 32.7949Z" fill="url(#paint28_linear)"/>
</g>
<defs>
<linearGradient id="paint0_linear" x1="56.8949" y1="55.0973" x2="327.364" y2="325.566" gradientUnits="userSpaceOnUse">
<stop stop-color="white"/>
<stop offset="1" stop-color="white" stop-opacity="0"/>
</linearGradient>
<linearGradient id="paint1_linear" x1="56.8949" y1="55.0973" x2="327.364" y2="325.566" gradientUnits="userSpaceOnUse">
<stop stop-color="white"/>
<stop offset="1" stop-color="white" stop-opacity="0"/>
</linearGradient>
<linearGradient id="paint2_linear" x1="56.8949" y1="55.0973" x2="327.364" y2="325.566" gradientUnits="userSpaceOnUse">
<stop stop-color="white"/>
<stop offset="1" stop-color="white" stop-opacity="0"/>
</linearGradient>
<linearGradient id="paint3_linear" x1="56.8949" y1="55.0973" x2="327.364" y2="325.566" gradientUnits="userSpaceOnUse">
<stop stop-color="white"/>
<stop offset="1" stop-color="white" stop-opacity="0"/>
</linearGradient>
<linearGradient id="paint4_linear" x1="56.8949" y1="55.0973" x2="327.364" y2="325.566" gradientUnits="userSpaceOnUse">
<stop stop-color="white"/>
<stop offset="1" stop-color="white" stop-opacity="0"/>
</linearGradient>
<linearGradient id="paint5_linear" x1="56.8949" y1="55.0973" x2="327.364" y2="325.566" gradientUnits="userSpaceOnUse">
<stop stop-color="white"/>
<stop offset="1" stop-color="white" stop-opacity="0"/>
</linearGradient>
<linearGradient id="paint6_linear" x1="56.8949" y1="55.0973" x2="327.364" y2="325.566" gradientUnits="userSpaceOnUse">
<stop stop-color="white"/>
<stop offset="1" stop-color="white" stop-opacity="0"/>
</linearGradient>
<linearGradient id="paint7_linear" x1="56.8949" y1="55.0973" x2="327.364" y2="325.566" gradientUnits="userSpaceOnUse">
<stop stop-color="white"/>
<stop offset="1" stop-color="white" stop-opacity="0"/>
</linearGradient>
<linearGradient id="paint8_linear" x1="56.8949" y1="55.0973" x2="327.364" y2="325.566" gradientUnits="userSpaceOnUse">
<stop stop-color="white"/>
<stop offset="1" stop-color="white" stop-opacity="0"/>
</linearGradient>
<linearGradient id="paint9_linear" x1="56.8949" y1="55.0973" x2="327.364" y2="325.566" gradientUnits="userSpaceOnUse">
<stop stop-color="white"/>
<stop offset="1" stop-color="white" stop-opacity="0"/>
</linearGradient>
<linearGradient id="paint10_linear" x1="56.8949" y1="55.0973" x2="327.364" y2="325.566" gradientUnits="userSpaceOnUse">
<stop stop-color="white"/>
<stop offset="1" stop-color="white" stop-opacity="0"/>
</linearGradient>
<linearGradient id="paint11_linear" x1="56.8949" y1="55.0973" x2="327.364" y2="325.566" gradientUnits="userSpaceOnUse">
<stop stop-color="white"/>
<stop offset="1" stop-color="white" stop-opacity="0"/>
</linearGradient>
<linearGradient id="paint12_linear" x1="56.8949" y1="55.0973" x2="327.364" y2="325.566" gradientUnits="userSpaceOnUse">
<stop stop-color="white"/>
<stop offset="1" stop-color="white" stop-opacity="0"/>
</linearGradient>
<linearGradient id="paint13_linear" x1="56.8949" y1="55.0973" x2="327.364" y2="325.566" gradientUnits="userSpaceOnUse">
<stop stop-color="white"/>
<stop offset="1" stop-color="white" stop-opacity="0"/>
</linearGradient>
<linearGradient id="paint14_linear" x1="56.8949" y1="55.0973" x2="327.364" y2="325.566" gradientUnits="userSpaceOnUse">
<stop stop-color="white"/>
<stop offset="1" stop-color="white" stop-opacity="0"/>
</linearGradient>
<linearGradient id="paint15_linear" x1="56.8949" y1="55.0973" x2="327.364" y2="325.566" gradientUnits="userSpaceOnUse">
<stop stop-color="white"/>
<stop offset="1" stop-color="white" stop-opacity="0"/>
</linearGradient>
<linearGradient id="paint16_linear" x1="56.8949" y1="55.0973" x2="327.364" y2="325.566" gradientUnits="userSpaceOnUse">
<stop stop-color="white"/>
<stop offset="1" stop-color="white" stop-opacity="0"/>
</linearGradient>
<linearGradient id="paint17_linear" x1="56.8949" y1="55.0973" x2="327.364" y2="325.566" gradientUnits="userSpaceOnUse">
<stop stop-color="white"/>
<stop offset="1" stop-color="white" stop-opacity="0"/>
</linearGradient>
<linearGradient id="paint18_linear" x1="56.8949" y1="55.0973" x2="327.364" y2="325.566" gradientUnits="userSpaceOnUse">
<stop stop-color="white"/>
<stop offset="1" stop-color="white" stop-opacity="0"/>
</linearGradient>
<linearGradient id="paint19_linear" x1="56.8949" y1="55.0973" x2="327.364" y2="325.566" gradientUnits="userSpaceOnUse">
<stop stop-color="white"/>
<stop offset="1" stop-color="white" stop-opacity="0"/>
</linearGradient>
<linearGradient id="paint20_linear" x1="56.8949" y1="55.0973" x2="327.364" y2="325.566" gradientUnits="userSpaceOnUse">
<stop stop-color="white"/>
<stop offset="1" stop-color="white" stop-opacity="0"/>
</linearGradient>
<linearGradient id="paint21_linear" x1="56.8949" y1="55.0973" x2="327.364" y2="325.566" gradientUnits="userSpaceOnUse">
<stop stop-color="white"/>
<stop offset="1" stop-color="white" stop-opacity="0"/>
</linearGradient>
<linearGradient id="paint22_linear" x1="56.8949" y1="55.0973" x2="327.364" y2="325.566" gradientUnits="userSpaceOnUse">
<stop stop-color="white"/>
<stop offset="1" stop-color="white" stop-opacity="0"/>
</linearGradient>
<linearGradient id="paint23_linear" x1="56.8949" y1="55.0973" x2="327.364" y2="325.566" gradientUnits="userSpaceOnUse">
<stop stop-color="white"/>
<stop offset="1" stop-color="white" stop-opacity="0"/>
</linearGradient>
<linearGradient id="paint24_linear" x1="56.8949" y1="55.0973" x2="327.364" y2="325.566" gradientUnits="userSpaceOnUse">
<stop stop-color="white"/>
<stop offset="1" stop-color="white" stop-opacity="0"/>
</linearGradient>
<linearGradient id="paint25_linear" x1="56.8949" y1="55.0973" x2="327.364" y2="325.566" gradientUnits="userSpaceOnUse">
<stop stop-color="white"/>
<stop offset="1" stop-color="white" stop-opacity="0"/>
</linearGradient>
<linearGradient id="paint26_linear" x1="56.8949" y1="55.0973" x2="327.364" y2="325.566" gradientUnits="userSpaceOnUse">
<stop stop-color="white"/>
<stop offset="1" stop-color="white" stop-opacity="0"/>
</linearGradient>
<linearGradient id="paint27_linear" x1="56.8949" y1="55.0973" x2="327.364" y2="325.566" gradientUnits="userSpaceOnUse">
<stop stop-color="white"/>
<stop offset="1" stop-color="white" stop-opacity="0"/>
</linearGradient>
<linearGradient id="paint28_linear" x1="56.8949" y1="55.0973" x2="327.364" y2="325.566" gradientUnits="userSpaceOnUse">
<stop stop-color="white"/>
<stop offset="1" stop-color="white" stop-opacity="0"/>
</linearGradient>
</defs>
</svg>
