<svg width="19" height="19" viewBox="0 0 19 19" fill="none" xmlns="http://www.w3.org/2000/svg">
<path opacity="0.3" fill-rule="evenodd" clip-rule="evenodd" d="M8.38038 9.49986L6.701 11.1792C6.39183 11.4884 6.39183 11.9897 6.701 12.2988C7.01016 12.608 7.51142 12.608 7.82059 12.2988L9.49996 10.6194L10.0598 11.1792C10.6781 11.7976 10.6781 12.8001 10.0598 13.4184L7.82058 15.6576C7.20225 16.2759 6.19974 16.2759 5.58141 15.6576L3.34224 13.4184C2.72391 12.8001 2.72391 11.7976 3.34224 11.1792L5.58141 8.94007C6.19974 8.32174 7.20225 8.32174 7.82058 8.94007L8.38038 9.49986Z" fill="white"/>
<path fill-rule="evenodd" clip-rule="evenodd" d="M10.6193 9.49965L12.2987 7.82027C12.6078 7.5111 12.6078 7.00985 12.2987 6.70068C11.9895 6.39152 11.4882 6.39152 11.1791 6.70068L9.49969 8.38006L8.9399 7.82027C8.32157 7.20194 8.32157 6.19943 8.9399 5.5811L11.1791 3.34193C11.7974 2.7236 12.7999 2.7236 13.4182 3.34193L15.6574 5.5811C16.2757 6.19943 16.2757 7.20194 15.6574 7.82027L13.4182 10.0594C12.7999 10.6778 11.7974 10.6778 11.1791 10.0594L10.6193 9.49965Z" fill="white"/>
</svg>
