<svg id="Layer_1" data-name="Layer 1" xmlns="http://www.w3.org/2000/svg" viewBox="0 0 50 19"><defs><style>.cls-1{fill:#f10710;}.cls-2{fill:#fff;}</style></defs><path class="cls-1" d="M9.5,0h31A9.5,9.5,0,0,1,50,9.5h0A9.5,9.5,0,0,1,40.5,19H9.5A9.5,9.5,0,0,1,0,9.5H0A9.5,9.5,0,0,1,9.5,0Z"/><path class="cls-2" d="M18.8,14h5.42V12.67H20.38V5.27H18.8Zm8.38-8.73H25.6V14h1.58Zm2.88,0H28.32L31.39,14h2l3.07-8.73H34.68l-2.26,6.87h-.09ZM37.57,14h5.71V12.67H39.15V10.29H43V9h-3.8V6.6h4.1V5.27H37.57Z"/><circle class="cls-2" cx="10" cy="9" r="4"/></svg>