<svg width="82" height="24" viewBox="0 0 82 24" fill="#181930" xmlns="http://www.w3.org/2000/svg">
    <path d="M59.3965 7.35252H62.6334C62.6334 5.54907 63.7433 4.02308 65.2693 3.42193V0C61.9398 0.739876 59.3965 3.74562 59.3965 7.35252Z" />
    <path d="M57.7783 12.1623H59.3968V24.0003H62.6338V12.1623H64.021V8.92529H57.7783V12.1623Z" />
    <path d="M19.3959 23.9989C15.2341 23.9989 11.8584 20.6233 11.8584 16.4615C11.8584 12.2997 15.2341 8.97021 19.3959 8.97021C23.5577 8.97021 26.8871 12.3459 26.8871 16.4615C26.9334 20.6233 23.5577 23.9989 19.3959 23.9989ZM19.3959 12.2072C17.0375 12.2072 15.1416 14.1031 15.1416 16.4615C15.1416 18.8198 17.0375 20.7157 19.3959 20.7157C21.7542 20.7157 23.6502 18.8198 23.6502 16.4615C23.6964 14.1031 21.7542 12.2072 19.3959 12.2072Z" />
    <path d="M38.5406 19.2832C38.0782 20.023 37.0609 20.2542 36.321 19.7918L30.6332 16.1849C29.5696 15.4913 28.9222 14.3352 28.876 13.0405C28.876 11.7457 29.4771 10.5896 30.5407 9.84974C32.3904 8.60119 34.795 8.60119 36.6447 9.84974L38.0319 10.7746C38.7718 11.2832 38.9568 12.2543 38.4944 13.0405C37.9857 13.7803 37.0146 13.9653 36.2285 13.5029L34.8412 12.578C34.1014 12.0694 33.084 12.0694 32.3441 12.578C32.1592 12.7168 32.1129 12.9017 32.1129 13.0405C32.1129 13.1329 32.1592 13.3641 32.3441 13.4566L37.9857 17.0635C38.7718 17.5259 39.003 18.5433 38.5406 19.2832Z" />
    <path d="M31.8365 23.7225L29.6169 22.2428C28.877 21.7341 28.692 20.763 29.1545 19.9769C29.6631 19.237 30.6342 19.0058 31.4203 19.5145L33.6399 20.9942C34.3798 21.5029 34.5648 22.474 34.1024 23.2601C33.5475 24 32.5764 24.2312 31.8365 23.7225Z" />
    <path d="M9.63987 19.2832C9.17745 20.023 8.16012 20.2542 7.42024 19.7918L1.77869 16.1849C0.668876 15.4913 0.0214844 14.3352 0.0214844 13.0405C0.0214844 11.7457 0.622634 10.5896 1.68621 9.84974C3.53589 8.60119 5.94049 8.60119 7.79018 9.84974L9.17745 10.7746C9.91732 11.2832 10.1023 12.2543 9.63987 13.0405C9.13121 13.7803 8.16012 13.9653 7.374 13.5029L5.98673 12.578C5.24686 12.0694 4.22953 12.0694 3.48965 12.578C3.30468 12.7168 3.25844 12.9017 3.25844 13.0405C3.25844 13.1329 3.30468 13.3641 3.48965 13.4566L9.13121 17.0635C9.91733 17.5259 10.1023 18.5433 9.63987 19.2832Z" />
    <path d="M2.93416 23.7225L0.714532 22.2428C-0.0253442 21.7341 -0.210313 20.763 0.252109 19.9769C0.760774 19.237 1.73186 19.0058 2.51798 19.5145L4.73761 20.9942C5.47748 21.5029 5.66245 22.474 5.20003 23.2601C4.69136 24 3.67404 24.2312 2.93416 23.7225Z" />
    <path d="M52.5522 8.97021V10.3112C51.3499 9.47888 49.8701 8.97021 48.2979 8.97021C44.1361 8.97021 40.8066 12.3459 40.8066 16.4615C40.8066 20.6233 44.1823 23.9989 48.2979 23.9989C49.8701 23.9989 51.3499 23.4903 52.5522 22.6579V23.9989H55.7891V8.97021H52.5522ZM48.2979 20.762C45.9395 20.762 44.0436 18.8198 44.0436 16.4615C44.0436 14.1031 45.9858 12.2072 48.2979 12.2072C50.6562 12.2072 52.5522 14.1493 52.5522 16.4615C52.5522 18.8198 50.6562 20.762 48.2979 20.762Z" />
    <path d="M80.8988 18.0799C81.0375 17.5713 81.0838 17.0164 81.0838 16.4615C81.0838 15.9066 81.0375 15.3516 80.8988 14.843C80.1589 11.4673 77.1532 8.97021 73.5463 8.97021C69.9856 8.97021 66.9336 11.5135 66.1938 14.843C66.1013 15.3516 66.0088 15.9066 66.0088 16.4615C66.0088 17.0164 66.055 17.5713 66.1938 18.0799C66.9336 21.4556 69.9394 23.9989 73.5463 23.9989C75.2572 23.9989 76.922 23.3978 78.2167 22.3342L75.9046 20.0221C75.211 20.4845 74.3786 20.762 73.5463 20.762C71.7428 20.762 70.2168 19.6522 69.6157 18.0799H80.8988ZM73.5463 12.2072C75.3497 12.2072 76.8757 13.317 77.5231 14.843H69.6157C70.2168 13.2707 71.7428 12.2072 73.5463 12.2072Z" />
</svg>
