<svg width="24" height="24" viewBox="0 0 24 24" fill="none" xmlns="http://www.w3.org/2000/svg">
<path fill-rule="evenodd" clip-rule="evenodd" d="M5 6H19C20.1046 6 21 6.89543 21 8V17C21 18.1046 20.1046 19 19 19H5C3.89543 19 3 18.1046 3 17V8C3 6.89543 3.89543 6 5 6ZM18.1444 7.83965L12 11.1482L5.85558 7.83965C5.49087 7.64327 5.03603 7.77972 4.83965 8.14443C4.64327 8.50913 4.77972 8.96398 5.14442 9.16035L11.6444 12.6604C11.8664 12.7799 12.1336 12.7799 12.3556 12.6604L18.8556 9.16035C19.2203 8.96398 19.3567 8.50913 19.1604 8.14443C18.964 7.77972 18.5091 7.64327 18.1444 7.83965Z" fill="#506EFA"/>
</svg>
