<svg width="423" height="587" viewBox="0 0 423 587" fill="none" xmlns="http://www.w3.org/2000/svg">
    <g opacity="0.3">
        <path d="M47.5533 453.773C58.4755 470.497 71.2791 486.351 85.9642 501.036C100.649 515.721 116.503 528.525 133.227 539.447L47.5533 453.773Z" fill="url(#paint0_linear)" />
        <path d="M166.229 558.059L28.9411 420.771C24.7889 412.14 21.0835 403.348 17.8249 394.43L192.57 569.175C183.652 565.917 174.86 562.211 166.229 558.059Z" fill="url(#paint1_linear)" />
        <path d="M213.816 576.031C220.474 577.902 227.185 579.534 233.936 580.926L6.07394 353.064C7.46636 359.815 9.0982 366.526 10.9694 373.184L213.816 576.031Z" fill="url(#paint2_linear)" />
        <path d="M3.02014 335.62L251.38 583.98C257.094 584.804 262.826 585.459 268.571 585.946L1.05416 318.429C1.54091 324.174 2.19624 329.907 3.02014 335.62Z" fill="url(#paint3_linear)" />
        <path d="M0.157445 303.142L283.858 586.843C288.965 587.009 294.076 587.044 299.185 586.945L0.0547177 287.815C-0.0436389 292.924 -0.00939641 298.035 0.157445 303.142Z" fill="url(#paint4_linear)" />
        <path d="M0.643603 274.014L312.986 586.356C317.649 586.048 322.306 585.629 326.953 585.099L1.90123 260.047C1.3712 264.694 0.951986 269.351 0.643603 274.014Z" fill="url(#paint5_linear)" />
        <path d="M3.62505 247.38L339.62 583.375C343.93 582.693 348.227 581.915 352.509 581.04L5.96008 234.491C5.08549 238.773 4.30714 243.07 3.62505 247.38Z" fill="url(#paint6_linear)" />
        <path d="M8.6098 222.75L364.25 578.39C368.264 577.397 372.261 576.319 376.238 575.154L11.8458 210.762C10.6813 214.739 9.6026 218.736 8.6098 222.75Z" fill="url(#paint7_linear)" />
        <path d="M15.2863 199.812L387.188 571.714C390.945 570.452 394.68 569.112 398.393 567.694L19.3058 188.607C17.8879 192.32 16.548 196.056 15.2863 199.812Z" fill="url(#paint8_linear)" />
        <path d="M23.445 178.356L408.645 563.555C412.17 562.053 415.671 560.48 419.148 558.834L28.1664 167.853C26.5205 171.329 24.9466 174.83 23.445 178.356Z" fill="url(#paint9_linear)" />
        <path d="M32.9393 158.235L428.765 554.061C432.078 552.34 435.365 550.551 438.624 548.695L38.3046 148.376C36.4488 151.635 34.6603 154.922 32.9393 158.235Z" fill="url(#paint10_linear)" />
        <path d="M43.6647 139.346L447.654 543.335C450.769 541.41 453.855 539.421 456.912 537.368L49.632 130.089C47.5792 133.145 45.5901 136.231 43.6647 139.346Z" fill="url(#paint11_linear)" />
        <path d="M55.5456 121.612L465.388 531.454C468.314 529.335 471.21 527.156 474.074 524.915L62.0846 112.926C59.8443 115.79 57.6646 118.686 55.5456 121.612Z" fill="url(#paint12_linear)" />
        <path d="M68.5277 104.979L482.021 518.472C484.765 516.167 487.477 513.804 490.156 511.383L75.6174 96.8443C73.196 99.5226 70.8328 102.235 68.5277 104.979Z" fill="url(#paint13_linear)" />
        <path d="M82.5735 89.41L497.59 504.427C498.746 503.308 499.894 502.177 501.036 501.036C502.437 499.635 503.821 498.223 505.188 496.8L90.1997 81.8117C88.7774 83.1787 87.3654 84.5629 85.9642 85.9642C84.8226 87.1058 83.6923 88.2544 82.5735 89.41Z" fill="url(#paint14_linear)" />
        <path d="M97.6605 74.8822L512.118 489.34C514.53 486.652 516.883 483.93 519.179 481.176L105.824 67.821C103.07 70.1165 100.348 72.4702 97.6605 74.8822Z" fill="url(#paint15_linear)" />
        <path d="M113.798 61.4052L525.595 473.202C527.826 470.328 529.995 467.423 532.105 464.487L122.513 54.8955C119.577 57.0046 116.672 59.1745 113.798 61.4052Z" fill="url(#paint16_linear)" />
        <path d="M131.018 49.0102L537.99 455.982C540.033 452.915 542.011 449.819 543.927 446.694L140.306 43.0735C137.181 44.9886 134.085 46.9675 131.018 49.0102Z" fill="url(#paint17_linear)" />
        <path d="M149.366 37.7433L549.257 437.634C551.102 434.364 552.88 431.066 554.589 427.742L159.258 32.4106C155.934 34.1205 152.636 35.898 149.366 37.7433Z" fill="url(#paint18_linear)" />
        <path d="M168.907 27.6696L559.33 418.093C560.965 414.605 562.527 411.091 564.017 407.555L179.445 22.9833C175.909 24.4729 172.395 26.0351 168.907 27.6696Z" fill="url(#paint19_linear)" />
        <path d="M189.731 18.8789L568.121 397.269C569.526 393.543 570.853 389.794 572.102 386.025L200.975 14.8982C197.206 16.1467 193.457 17.4736 189.731 18.8789Z" fill="url(#paint20_linear)" />
        <path d="M211.964 11.4966L575.503 375.036C576.654 371.044 577.718 367.032 578.696 363.004L223.996 8.30445C219.968 9.28218 215.956 10.3462 211.964 11.4966Z" fill="url(#paint21_linear)" />
        <path d="M235.782 5.69941L581.301 351.218C582.159 346.919 582.92 342.604 583.584 338.277L248.723 3.4158C244.396 4.08011 240.081 4.84132 235.782 5.69941Z" fill="url(#paint22_linear)" />
        <path d="M261.443 1.74541L585.255 325.557C585.765 320.889 586.163 316.211 586.449 311.528L275.472 0.550755C270.789 0.837203 266.111 1.23544 261.443 1.74541Z" fill="url(#paint23_linear)" />
        <path d="M289.341 0.0292748L586.971 297.659C587.043 292.522 586.981 287.383 586.786 282.249L304.751 0.214388C299.617 0.0186579 294.478 -0.0430603 289.341 0.0292748Z" fill="url(#paint24_linear)" />
        <path d="M320.13 1.20323L585.797 266.87C585.273 261.085 584.578 255.312 583.712 249.56L337.44 3.2884C331.688 2.42222 325.915 1.72718 320.13 1.20323Z" fill="url(#paint25_linear)" />
        <path d="M355.028 6.48597L580.514 231.972C579.058 225.15 577.357 218.37 575.411 211.645L375.355 11.5887C368.63 9.64269 361.85 7.9418 355.028 6.48597Z" fill="url(#paint26_linear)" />
        <path d="M396.895 18.7383L568.262 190.105C564.837 180.987 560.942 172.005 556.578 163.197L423.803 30.4215C414.995 26.0576 406.013 22.1633 396.895 18.7383Z" fill="url(#paint27_linear)" />
        <path d="M458.431 50.6595L536.341 128.569C526.119 113.555 514.351 99.2792 501.036 85.9642C487.721 72.6492 473.445 60.881 458.431 50.6595Z" fill="url(#paint28_linear)" />
    </g>
    <defs>
        <linearGradient id="paint0_linear" x1="87.8877" y1="85.1108" x2="505.691" y2="502.914" gradientUnits="userSpaceOnUse">
            <stop stop-color="white" />
            <stop offset="1" stop-color="white" stop-opacity="0" />
        </linearGradient>
        <linearGradient id="paint1_linear" x1="87.8877" y1="85.1108" x2="505.691" y2="502.914" gradientUnits="userSpaceOnUse">
            <stop stop-color="white" />
            <stop offset="1" stop-color="white" stop-opacity="0" />
        </linearGradient>
        <linearGradient id="paint2_linear" x1="87.8877" y1="85.1108" x2="505.691" y2="502.914" gradientUnits="userSpaceOnUse">
            <stop stop-color="white" />
            <stop offset="1" stop-color="white" stop-opacity="0" />
        </linearGradient>
        <linearGradient id="paint3_linear" x1="87.8877" y1="85.1108" x2="505.691" y2="502.914" gradientUnits="userSpaceOnUse">
            <stop stop-color="white" />
            <stop offset="1" stop-color="white" stop-opacity="0" />
        </linearGradient>
        <linearGradient id="paint4_linear" x1="87.8877" y1="85.1108" x2="505.691" y2="502.914" gradientUnits="userSpaceOnUse">
            <stop stop-color="white" />
            <stop offset="1" stop-color="white" stop-opacity="0" />
        </linearGradient>
        <linearGradient id="paint5_linear" x1="87.8877" y1="85.1108" x2="505.691" y2="502.914" gradientUnits="userSpaceOnUse">
            <stop stop-color="white" />
            <stop offset="1" stop-color="white" stop-opacity="0" />
        </linearGradient>
        <linearGradient id="paint6_linear" x1="87.8877" y1="85.1108" x2="505.691" y2="502.914" gradientUnits="userSpaceOnUse">
            <stop stop-color="white" />
            <stop offset="1" stop-color="white" stop-opacity="0" />
        </linearGradient>
        <linearGradient id="paint7_linear" x1="87.8877" y1="85.1108" x2="505.691" y2="502.914" gradientUnits="userSpaceOnUse">
            <stop stop-color="white" />
            <stop offset="1" stop-color="white" stop-opacity="0" />
        </linearGradient>
        <linearGradient id="paint8_linear" x1="87.8877" y1="85.1108" x2="505.691" y2="502.914" gradientUnits="userSpaceOnUse">
            <stop stop-color="white" />
            <stop offset="1" stop-color="white" stop-opacity="0" />
        </linearGradient>
        <linearGradient id="paint9_linear" x1="87.8877" y1="85.1108" x2="505.691" y2="502.914" gradientUnits="userSpaceOnUse">
            <stop stop-color="white" />
            <stop offset="1" stop-color="white" stop-opacity="0" />
        </linearGradient>
        <linearGradient id="paint10_linear" x1="87.8877" y1="85.1108" x2="505.691" y2="502.914" gradientUnits="userSpaceOnUse">
            <stop stop-color="white" />
            <stop offset="1" stop-color="white" stop-opacity="0" />
        </linearGradient>
        <linearGradient id="paint11_linear" x1="87.8877" y1="85.1108" x2="505.691" y2="502.914" gradientUnits="userSpaceOnUse">
            <stop stop-color="white" />
            <stop offset="1" stop-color="white" stop-opacity="0" />
        </linearGradient>
        <linearGradient id="paint12_linear" x1="87.8877" y1="85.1108" x2="505.691" y2="502.914" gradientUnits="userSpaceOnUse">
            <stop stop-color="white" />
            <stop offset="1" stop-color="white" stop-opacity="0" />
        </linearGradient>
        <linearGradient id="paint13_linear" x1="87.8877" y1="85.1108" x2="505.691" y2="502.914" gradientUnits="userSpaceOnUse">
            <stop stop-color="white" />
            <stop offset="1" stop-color="white" stop-opacity="0" />
        </linearGradient>
        <linearGradient id="paint14_linear" x1="87.8877" y1="85.1108" x2="505.691" y2="502.914" gradientUnits="userSpaceOnUse">
            <stop stop-color="white" />
            <stop offset="1" stop-color="white" stop-opacity="0" />
        </linearGradient>
        <linearGradient id="paint15_linear" x1="87.8877" y1="85.1108" x2="505.691" y2="502.914" gradientUnits="userSpaceOnUse">
            <stop stop-color="white" />
            <stop offset="1" stop-color="white" stop-opacity="0" />
        </linearGradient>
        <linearGradient id="paint16_linear" x1="87.8877" y1="85.1108" x2="505.691" y2="502.914" gradientUnits="userSpaceOnUse">
            <stop stop-color="white" />
            <stop offset="1" stop-color="white" stop-opacity="0" />
        </linearGradient>
        <linearGradient id="paint17_linear" x1="87.8877" y1="85.1108" x2="505.691" y2="502.914" gradientUnits="userSpaceOnUse">
            <stop stop-color="white" />
            <stop offset="1" stop-color="white" stop-opacity="0" />
        </linearGradient>
        <linearGradient id="paint18_linear" x1="87.8877" y1="85.1108" x2="505.691" y2="502.914" gradientUnits="userSpaceOnUse">
            <stop stop-color="white" />
            <stop offset="1" stop-color="white" stop-opacity="0" />
        </linearGradient>
        <linearGradient id="paint19_linear" x1="87.8877" y1="85.1108" x2="505.691" y2="502.914" gradientUnits="userSpaceOnUse">
            <stop stop-color="white" />
            <stop offset="1" stop-color="white" stop-opacity="0" />
        </linearGradient>
        <linearGradient id="paint20_linear" x1="87.8877" y1="85.1108" x2="505.691" y2="502.914" gradientUnits="userSpaceOnUse">
            <stop stop-color="white" />
            <stop offset="1" stop-color="white" stop-opacity="0" />
        </linearGradient>
        <linearGradient id="paint21_linear" x1="87.8877" y1="85.1108" x2="505.691" y2="502.914" gradientUnits="userSpaceOnUse">
            <stop stop-color="white" />
            <stop offset="1" stop-color="white" stop-opacity="0" />
        </linearGradient>
        <linearGradient id="paint22_linear" x1="87.8877" y1="85.1108" x2="505.691" y2="502.914" gradientUnits="userSpaceOnUse">
            <stop stop-color="white" />
            <stop offset="1" stop-color="white" stop-opacity="0" />
        </linearGradient>
        <linearGradient id="paint23_linear" x1="87.8877" y1="85.1108" x2="505.691" y2="502.914" gradientUnits="userSpaceOnUse">
            <stop stop-color="white" />
            <stop offset="1" stop-color="white" stop-opacity="0" />
        </linearGradient>
        <linearGradient id="paint24_linear" x1="87.8877" y1="85.1108" x2="505.691" y2="502.914" gradientUnits="userSpaceOnUse">
            <stop stop-color="white" />
            <stop offset="1" stop-color="white" stop-opacity="0" />
        </linearGradient>
        <linearGradient id="paint25_linear" x1="87.8877" y1="85.1108" x2="505.691" y2="502.914" gradientUnits="userSpaceOnUse">
            <stop stop-color="white" />
            <stop offset="1" stop-color="white" stop-opacity="0" />
        </linearGradient>
        <linearGradient id="paint26_linear" x1="87.8877" y1="85.1108" x2="505.691" y2="502.914" gradientUnits="userSpaceOnUse">
            <stop stop-color="white" />
            <stop offset="1" stop-color="white" stop-opacity="0" />
        </linearGradient>
        <linearGradient id="paint27_linear" x1="87.8877" y1="85.1108" x2="505.691" y2="502.914" gradientUnits="userSpaceOnUse">
            <stop stop-color="white" />
            <stop offset="1" stop-color="white" stop-opacity="0" />
        </linearGradient>
        <linearGradient id="paint28_linear" x1="87.8877" y1="85.1108" x2="505.691" y2="502.914" gradientUnits="userSpaceOnUse">
            <stop stop-color="white" />
            <stop offset="1" stop-color="white" stop-opacity="0" />
        </linearGradient>
    </defs>
</svg>
