<svg width="305" height="641" viewBox="0 0 305 641" fill="none" xmlns="http://www.w3.org/2000/svg">
<path fill-rule="evenodd" clip-rule="evenodd" d="M47.856 0C22.8543 0 2.58643 20.2679 2.58643 45.2696V97.9814C2.53312 97.9779 2.47935 97.9761 2.42516 97.9761C1.08578 97.9761 0 99.0619 0 100.401V185.767C0 187.106 1.08578 188.192 2.42516 188.192C2.47935 188.192 2.53312 188.19 2.58643 188.187V225.059C2.53312 225.056 2.47935 225.054 2.42516 225.054C1.08578 225.054 0 226.14 0 227.479V267.575C0 268.914 1.08578 270 2.42516 270C2.47935 270 2.53312 269.998 2.58643 269.995V594.913C2.58643 619.914 22.8543 640.182 47.856 640.182H257.066C282.068 640.182 302.336 619.914 302.336 594.913V230.87C303.6 230.787 304.6 229.735 304.6 228.45V191.911C304.6 190.626 303.6 189.574 302.336 189.491V45.2696C302.336 20.2679 282.068 0 257.066 0H47.856Z" fill="#181930"/>
</svg>
