<svg width="40" height="40" viewBox="0 0 40 40" fill="none" xmlns="http://www.w3.org/2000/svg">
    <path opacity="0.3" d="M34 18H38C39.1046 18 40 18.8954 40 20C40 21.1046 39.1046 22 38 22H34C32.8954 22 32 21.1046 32 20C32 18.8954 32.8954 18 34 18ZM2 18H6C7.10457 18 8 18.8954 8 20C8 21.1046 7.10457 22 6 22H2C0.89543 22 0 21.1046 0 20C0 18.8954 0.89543 18 2 18ZM20 0C21.1046 0 22 0.89543 22 2V6C22 7.10457 21.1046 8 20 8C18.8954 8 18 7.10457 18 6V2C18 0.89543 18.8954 0 20 0ZM20 32C21.1046 32 22 32.8954 22 34V38C22 39.1046 21.1046 40 20 40C18.8954 40 18 39.1046 18 38V34C18 32.8954 18.8954 32 20 32Z" fill="white" />
    <path opacity="0.3" d="M20 24C22.2091 24 24 22.2091 24 20C24 17.7909 22.2091 16 20 16C17.7909 16 16 17.7909 16 20C16 22.2091 17.7909 24 20 24Z" fill="white" />
    <path d="M20 30C25.5228 30 30 25.5228 30 20C30 14.4772 25.5228 10 20 10C14.4772 10 10 14.4772 10 20C10 25.5228 14.4772 30 20 30ZM20 34C12.268 34 6 27.732 6 20C6 12.268 12.268 6 20 6C27.732 6 34 12.268 34 20C34 27.732 27.732 34 20 34Z" fill="white" />
</svg>
