<svg width="24" height="32" viewBox="0 0 24 32" fill="none" xmlns="http://www.w3.org/2000/svg">
    <path opacity="0.3" fill-rule="evenodd" clip-rule="evenodd" d="M0 2.99997L11.4471 0.85363C11.8125 0.785118 12.1875 0.785118 12.5529 0.85363L24 2.99997V16.9245C24 21.326 21.7325 25.4171 18 27.75L12.795 31.0031C12.3086 31.3071 11.6914 31.3071 11.205 31.0031L6 27.75C2.26748 25.4171 0 21.326 0 16.9245V2.99997Z" fill="white" />
    <path fill-rule="evenodd" clip-rule="evenodd" d="M10.7637 19.125C10.4043 19.125 10.0449 18.9812 9.75742 18.6937L6.88242 15.8187C6.30742 15.2438 6.30742 14.3812 6.88242 13.8062C7.45742 13.2312 8.3918 13.2312 8.89492 13.8062L10.7637 15.675L15.5074 10.9313C16.0824 10.3562 16.9449 10.3562 17.5199 10.9313C18.0949 11.5063 18.0949 12.3687 17.5199 12.9437L11.7699 18.6937C11.4824 18.9812 11.123 19.125 10.7637 19.125Z" fill="white" />
</svg>
