<svg width="40" height="40" viewBox="0 0 40 40" fill="none" xmlns="http://www.w3.org/2000/svg">
<path opacity="0.3" d="M36.6663 19.9999C36.6663 10.7952 29.2044 3.33325 19.9997 3.33325C10.7949 3.33325 3.33301 10.7952 3.33301 19.9999C3.33301 29.2047 10.7949 36.6666 19.9997 36.6666C29.2044 36.6666 36.6663 29.2047 36.6663 19.9999Z" fill="white"/>
<path fill-rule="evenodd" clip-rule="evenodd" d="M10.2801 24.2578C9.76951 23.492 9.97646 22.4572 10.7423 21.9466C11.5082 21.436 12.543 21.643 13.0536 22.4088C14.982 25.3014 17.2574 26.6667 20.0002 26.6667C22.743 26.6667 25.0184 25.3014 26.9468 22.4088C27.4573 21.643 28.4921 21.436 29.258 21.9466C30.0239 22.4572 30.2309 23.492 29.7203 24.2578C27.2042 28.0319 23.9241 30 20.0002 30C16.0763 30 12.7961 28.0319 10.2801 24.2578Z" fill="white"/>
</svg>
