<svg width="13" height="12" viewBox="0 0 13 12" fill="none" xmlns="http://www.w3.org/2000/svg">
<path d="M11.8307 4.5895C11.7662 4.4005 11.5957 4.267 11.3967 4.2515L8.54617 4.025L7.31267 1.2945C7.23217 1.115 7.05367 1 6.85717 1C6.66067 1 6.48217 1.115 6.40167 1.294L5.16817 4.025L2.31767 4.2515C2.12217 4.267 1.95367 4.3955 1.88717 4.58C1.82067 4.7645 1.86767 4.971 2.00817 5.108L4.11467 7.1615L3.36967 10.3875C3.32367 10.587 3.40417 10.7945 3.57267 10.911C3.65867 10.97 3.75767 11 3.85717 11C3.95367 11 4.05067 10.972 4.13467 10.916L6.85717 9.101L9.57967 10.916C9.75367 11.032 9.98217 11.0275 10.1522 10.904C10.3212 10.7805 10.3957 10.564 10.3382 10.363L9.42367 7.163L11.6917 5.122C11.8402 4.988 11.8947 4.779 11.8307 4.5895Z" fill="#FD9326"/>
</svg>
