<svg width="28" height="28" viewBox="0 0 28 28" fill="#506EFA" xmlns="http://www.w3.org/2000/svg">
    <path opacity="0.3" fill-rule="evenodd" clip-rule="evenodd" d="M14.0003 24.4997C8.84567 24.4997 4.66699 20.321 4.66699 15.1663C4.66699 10.0117 8.84567 5.83301 14.0003 5.83301C19.155 5.83301 23.3337 10.0117 23.3337 15.1663C23.3337 20.321 19.155 24.4997 14.0003 24.4997Z" />
    <path fill-rule="evenodd" clip-rule="evenodd" d="M15.1667 5.90522C14.7845 5.85756 14.3951 5.83301 14 5.83301C13.6049 5.83301 13.2155 5.85756 12.8333 5.90522V4.66634H11.6667C11.0223 4.66634 10.5 4.14401 10.5 3.49967C10.5 2.85534 11.0223 2.33301 11.6667 2.33301H16.3333C16.9777 2.33301 17.5 2.85534 17.5 3.49967C17.5 4.14401 16.9777 4.66634 16.3333 4.66634H15.1667V5.90522Z" />
    <path fill-rule="evenodd" clip-rule="evenodd" d="M19.4951 7.62134L20.4583 6.65811C20.914 6.2025 21.6526 6.2025 22.1083 6.65811C22.5639 7.11373 22.5639 7.85242 22.1083 8.30803L21.1952 9.22108C20.6978 8.6198 20.1265 8.08191 19.4951 7.62134Z" />
    <path fill-rule="evenodd" clip-rule="evenodd" d="M13.9568 8.75H14.0431C14.3479 8.75 14.6013 8.98468 14.6247 9.28859L15.1183 15.7053C15.143 16.0265 14.9026 16.3069 14.5814 16.3316C14.5665 16.3328 14.5516 16.3333 14.5367 16.3333H13.4632C13.1411 16.3333 12.8799 16.0722 12.8799 15.75C12.8799 15.7351 12.8805 15.7201 12.8816 15.7053L13.3752 9.28859C13.3986 8.98468 13.652 8.75 13.9568 8.75Z" />
</svg>
