<svg width="560" height="259" viewBox="0 0 560 259" fill="none" xmlns="http://www.w3.org/2000/svg">
<path opacity="0.05" d="M384.56 100.574C311.984 16.0005 211.965 114.83 132.699 47.8997C91.4568 13.0759 83.093 -18.3481 53.4977 -70.2962C34.5151 -103.616 32.7057 -109.417 14.6889 -133.248C-3.32784 -157.08 -36 -184.638 -36 -184.638V-272H817V309.986H613.452C613.452 309.986 504.736 312.734 452.673 240.61C421.008 196.744 421.712 143.868 384.56 100.574Z" fill="white"/>
<path opacity="0.05" d="M413.56 72.7982C340.984 -11.7752 240.965 108.895 161.699 41.9645C120.457 7.1407 98.8662 -9.49664 86.8539 -45.9689C80.2719 -65.9537 70.2216 -83.9401 53.8973 -97.9294C37.573 -111.919 -7 -105.638 -7 -105.638V-193H846V245.667H655.124C655.124 245.667 521.274 252.661 477.713 202.557C439.696 158.829 450.712 116.092 413.56 72.7982Z" fill="white"/>
</svg>
